<svg xmlns="http://www.w3.org/2000/svg" xmlns:xlink="http://www.w3.org/1999/xlink" xmlns:fi="http://pattern.flaticon.com/" x="0" y="0" width="1920" height="1080" viewBox="0 0 1920 1080"><rect x="0px" y="0px" width="100%" height="100%" opacity="1" fill="#ebfdff"/><defs><g transform="matrix(0.17578125 0 0 0.17578125 211.5 218.4999999780273)" id="L1_217"><path d="M 489.972656 244.984375 C 489.972656 380.289062 380.289062 489.972656 244.988281 489.972656 C 109.683594 489.972656 0 380.289062 0 244.984375 C 0 109.683594 109.683594 0 244.988281 0 C 380.289062 0 489.972656 109.683594 489.972656 244.984375 Z M 489.972656 244.984375 " fill="#2ae0af" fill-opacity="1" stroke="none"/><path d="M 324.652344 244.984375 C 324.652344 174.394531 282.929688 112.765625 225.925781 79.789062 C 168.921875 112.765625 127.195312 174.394531 127.195312 244.984375 C 127.195312 315.578125 168.921875 377.207031 225.925781 410.183594 C 282.929688 377.207031 324.652344 315.578125 324.652344 244.984375 Z M 324.652344 244.984375 " fill="#6060f4" fill-opacity="1" stroke="none"/><path d="M 0 244.984375 C 0 318.902344 32.738281 385.171875 84.5 430.089844 C 131.628906 441.777344 182.507812 435.300781 225.925781 410.183594 C 98.867188 336.679688 98.871094 153.285156 225.925781 79.789062 C 182.597656 54.726562 131.703125 48.175781 84.5 59.882812 C 32.738281 104.800781 0 171.070312 0 244.984375 Z M 0 244.984375 " fill="#f754b1" fill-opacity="1" stroke="none"/><path d="M 24.785156 137.53125 C 8.921875 169.976562 0 206.4375 0 244.984375 C 0 318.902344 32.738281 385.171875 84.5 430.089844 C 127.617188 440.785156 174.316406 436.335938 215.609375 415.726562 C 90.6875 389.199219 4.023438 268.804688 24.785156 137.53125 Z M 24.785156 137.53125 " fill="#f240ae" fill-opacity="1" stroke="none"/><path d="M 225.925781 79.789062 C 352.980469 153.289062 352.976562 336.683594 225.925781 410.183594 C 351.917969 483.070312 512 392.414062 512 244.984375 C 512 97.597656 351.933594 6.894531 225.925781 79.789062 Z M 225.925781 79.789062 " fill="#0e8ddb" fill-opacity="1" stroke="none"/><path d="M 423.0625 224.148438 L 383.75 224.148438 C 379.097656 224.148438 375.324219 220.375 375.324219 215.722656 C 375.324219 211.066406 379.097656 207.296875 383.75 207.296875 L 423.0625 207.296875 C 427.71875 207.296875 431.488281 211.066406 431.488281 215.722656 C 431.488281 220.375 427.71875 224.148438 423.0625 224.148438 Z M 423.0625 224.148438 " fill="#409ff5" fill-opacity="1" stroke="none"/><path d="M 448.527344 253.414062 L 383.75 253.414062 C 379.097656 253.414062 375.324219 249.640625 375.324219 244.988281 C 375.324219 240.332031 379.097656 236.558594 383.75 236.558594 L 448.527344 236.558594 C 453.183594 236.558594 456.953125 240.332031 456.953125 244.988281 C 456.953125 249.640625 453.179688 253.414062 448.527344 253.414062 Z M 448.527344 253.414062 " fill="#409ff5" fill-opacity="1" stroke="none"/><path d="M 448.527344 282.675781 L 383.75 282.675781 C 379.097656 282.675781 375.324219 278.90625 375.324219 274.25 C 375.324219 269.59375 379.097656 265.824219 383.75 265.824219 L 448.527344 265.824219 C 453.183594 265.824219 456.953125 269.59375 456.953125 274.25 C 456.953125 278.90625 453.179688 282.675781 448.527344 282.675781 Z M 448.527344 282.675781 " fill="#409ff5" fill-opacity="1" stroke="none"/><path d="M 42.632812 224.148438 C 47.289062 224.148438 51.058594 220.375 51.058594 215.722656 C 51.058594 211.066406 47.285156 207.296875 42.632812 207.296875 L 2.886719 207.296875 C 2.027344 212.851562 1.367188 218.476562 0.890625 224.148438 Z M 42.632812 224.148438 " fill="#fc86bf" fill-opacity="1" stroke="none"/><path d="M 76.523438 274.25 C 76.523438 269.597656 72.753906 265.824219 68.097656 265.824219 L 0.890625 265.824219 C 1.367188 271.5 2.027344 277.121094 2.886719 282.679688 L 68.097656 282.679688 C 72.753906 282.675781 76.523438 278.90625 76.523438 274.25 Z M 76.523438 274.25 " fill="#fc86bf" fill-opacity="1" stroke="none"/><path d="M 68.097656 236.558594 L 0.160156 236.558594 C 0.0664062 239.359375 0 242.164062 0 244.984375 C 0 247.808594 0.0664062 250.613281 0.160156 253.410156 L 68.097656 253.410156 C 72.753906 253.410156 76.523438 249.640625 76.523438 244.984375 C 76.523438 240.332031 72.753906 236.558594 68.097656 236.558594 Z M 68.097656 236.558594 " fill="#fc86bf" fill-opacity="1" stroke="none"/><path d="M 287.640625 353.152344 C 271.578125 376.429688 250.488281 395.972656 225.925781 410.183594 C 281.347656 442.246094 349.339844 444.101562 406.171875 415.800781 C 360.75 406.226562 319.96875 384.078125 287.640625 353.152344 Z M 287.640625 353.152344 " fill="#057ec9" fill-opacity="1" stroke="none"/><path d="M 230.492188 82.519531 C 228.980469 81.589844 227.460938 80.675781 225.925781 79.789062 C 168.921875 112.765625 127.195312 174.394531 127.195312 244.984375 C 127.195312 315.578125 168.921875 377.207031 225.925781 410.183594 C 250.222656 396.125 271.742188 376.859375 288.441406 353.914062 C 213.566406 282.933594 192.40625 174.582031 230.492188 82.519531 Z M 230.492188 82.519531 " fill="#4c4ced" fill-opacity="1" stroke="none"/><path d="M 232.847656 224.148438 L 193.535156 224.148438 C 188.882812 224.148438 185.109375 220.375 185.109375 215.722656 C 185.109375 211.066406 188.882812 207.296875 193.535156 207.296875 L 232.847656 207.296875 C 237.503906 207.296875 241.273438 211.066406 241.273438 215.722656 C 241.273438 220.375 237.503906 224.148438 232.847656 224.148438 Z M 232.847656 224.148438 " fill="#887eff" fill-opacity="1" stroke="none"/><path d="M 258.3125 253.414062 L 193.535156 253.414062 C 188.882812 253.414062 185.109375 249.640625 185.109375 244.988281 C 185.109375 240.332031 188.882812 236.558594 193.535156 236.558594 L 258.3125 236.558594 C 262.96875 236.558594 266.738281 240.332031 266.738281 244.988281 C 266.738281 249.640625 262.96875 253.414062 258.3125 253.414062 Z M 258.3125 253.414062 " fill="#887eff" fill-opacity="1" stroke="none"/><path d="M 258.3125 282.675781 L 193.535156 282.675781 C 188.882812 282.675781 185.109375 278.90625 185.109375 274.25 C 185.109375 269.59375 188.882812 265.824219 193.535156 265.824219 L 258.3125 265.824219 C 262.96875 265.824219 266.738281 269.59375 266.738281 274.25 C 266.738281 278.90625 262.96875 282.675781 258.3125 282.675781 Z M 258.3125 282.675781 " fill="#887eff" fill-opacity="1" stroke="none"/></g><g transform="matrix(0.07812491804361343 0 0 0.07812491804361343 242.5 67.5)" id="L1_219"><path d="M 493.566406 265.21875 C 493.566406 401.511719 383.078125 512 246.785156 512 C 110.488281 512 0 401.511719 0 265.21875 C 0 128.921875 110.488281 18.433594 246.785156 18.433594 C 383.078125 18.433594 493.566406 128.921875 493.566406 265.21875 Z M 493.566406 265.21875 " fill="#104a7c" fill-opacity="1" stroke="none"/><path d="M 47.371094 410.601562 C 92.257812 472.058594 164.851562 512 246.785156 512 C 328.71875 512 401.308594 472.0625 446.195312 410.601562 Z M 47.371094 410.601562 " fill="#0c3a6d" fill-opacity="1" stroke="none"/><path d="M 229.546875 459.40625 C 229.546875 437.546875 242.742188 418.777344 261.59375 410.601562 L 47.371094 410.601562 C 92.257812 472.058594 164.851562 512 246.785156 512 C 254.484375 512 262.101562 511.648438 269.625 510.957031 C 246.589844 505.117188 229.546875 484.253906 229.546875 459.40625 Z M 229.546875 459.40625 " fill="#072a5e" fill-opacity="1" stroke="none"/><path d="M 353.136719 410.601562 L 390.621094 410.601562 L 390.621094 18.433594 L 353.136719 18.433594 Z M 353.136719 410.601562 " fill="#057ec9" fill-opacity="1" stroke="none"/><path d="M 390.621094 410.601562 L 428.105469 410.601562 L 428.105469 18.433594 L 390.621094 18.433594 Z M 390.621094 410.601562 " fill="#0e8ddb" fill-opacity="1" stroke="none"/><path d="M 257.246094 410.601562 L 294.730469 410.601562 L 294.730469 118.378906 L 257.246094 118.378906 Z M 257.246094 410.601562 " fill="#0bb782" fill-opacity="1" stroke="none"/><path d="M 294.730469 410.601562 L 332.214844 410.601562 L 332.214844 118.378906 L 294.730469 118.378906 Z M 294.730469 410.601562 " fill="#17c996" fill-opacity="1" stroke="none"/><path d="M 298.535156 100.382812 C 296.097656 99.117188 293.363281 99.117188 290.925781 100.382812 L 257.246094 117.867188 L 294.730469 137.328125 L 332.214844 117.867188 Z M 298.535156 100.382812 " fill="#2ae0af" fill-opacity="1" stroke="none"/><path d="M 394.429688 0.949219 C 391.992188 -0.316406 389.253906 -0.316406 386.816406 0.949219 L 353.136719 18.433594 L 390.621094 37.894531 L 428.105469 18.433594 Z M 394.429688 0.949219 " fill="#409ff5" fill-opacity="1" stroke="none"/><path d="M 161.351562 410.601562 L 198.835938 410.601562 L 198.835938 217.8125 L 161.351562 217.8125 Z M 161.351562 410.601562 " fill="#eab339" fill-opacity="1" stroke="none"/><path d="M 198.835938 410.601562 L 236.320312 410.601562 L 236.320312 217.8125 L 198.835938 217.8125 Z M 198.835938 410.601562 " fill="#f4c758" fill-opacity="1" stroke="none"/><path d="M 202.644531 199.8125 C 200.207031 198.546875 197.46875 198.546875 195.03125 199.8125 L 161.351562 217.296875 L 198.835938 236.757812 L 236.320312 217.296875 Z M 202.644531 199.8125 " fill="#f7df9a" fill-opacity="1" stroke="none"/><path d="M 195.03125 199.8125 L 161.351562 217.296875 L 198.835938 236.757812 L 195.03125 234.78125 C 180.867188 227.429688 180.867188 207.167969 195.03125 199.8125 Z M 195.03125 199.8125 " fill="#f4c758" fill-opacity="1" stroke="none"/><path d="M 65.460938 410.601562 L 102.945312 410.601562 L 102.945312 317.242188 L 65.460938 317.242188 Z M 65.460938 410.601562 " fill="#ea5454" fill-opacity="1" stroke="none"/><path d="M 102.945312 410.601562 L 140.429688 410.601562 L 140.429688 317.242188 L 102.945312 317.242188 Z M 102.945312 410.601562 " fill="#f46969" fill-opacity="1" stroke="none"/><path d="M 106.75 299.246094 C 104.3125 297.976562 101.578125 297.976562 99.136719 299.246094 L 65.460938 316.730469 L 102.945312 336.191406 L 140.429688 316.730469 Z M 106.75 299.246094 " fill="#fb918a" fill-opacity="1" stroke="none"/><path d="M 290.925781 100.382812 L 257.246094 117.867188 L 294.730469 137.328125 L 290.925781 135.351562 C 276.761719 128 276.761719 107.738281 290.925781 100.382812 Z M 290.925781 100.382812 " fill="#17c996" fill-opacity="1" stroke="none"/><path d="M 386.816406 0.949219 L 353.136719 18.433594 L 390.621094 37.894531 L 386.816406 35.917969 C 372.652344 28.566406 372.652344 8.304688 386.816406 0.949219 Z M 386.816406 0.949219 " fill="#0e8ddb" fill-opacity="1" stroke="none"/><path d="M 99.136719 299.246094 L 65.460938 316.730469 L 99.136719 334.214844 C 84.972656 326.863281 84.972656 306.597656 99.136719 299.246094 Z M 99.136719 299.246094 " fill="#f46969" fill-opacity="1" stroke="none"/><path d="M 102.945312 438.367188 C 98.660156 438.367188 95.183594 434.894531 95.183594 430.609375 L 95.183594 410.601562 C 95.183594 406.3125 98.660156 402.839844 102.945312 402.839844 C 107.230469 402.839844 110.707031 406.3125 110.707031 410.601562 L 110.707031 430.605469 C 110.707031 434.894531 107.230469 438.367188 102.945312 438.367188 Z M 102.945312 438.367188 " fill="#358eba" fill-opacity="1" stroke="none"/><path d="M 198.835938 438.367188 C 194.550781 438.367188 191.078125 434.894531 191.078125 430.609375 L 191.078125 410.601562 C 191.078125 406.3125 194.550781 402.839844 198.835938 402.839844 C 203.125 402.839844 206.597656 406.3125 206.597656 410.601562 L 206.597656 430.605469 C 206.597656 434.894531 203.125 438.367188 198.835938 438.367188 Z M 198.835938 438.367188 " fill="#358eba" fill-opacity="1" stroke="none"/><path d="M 294.730469 438.367188 C 290.445312 438.367188 286.96875 434.894531 286.96875 430.609375 L 286.96875 410.601562 C 286.96875 406.3125 290.445312 402.839844 294.730469 402.839844 C 299.015625 402.839844 302.492188 406.3125 302.492188 410.601562 L 302.492188 430.605469 C 302.492188 434.894531 299.015625 438.367188 294.730469 438.367188 Z M 294.730469 438.367188 " fill="#3ea4cc" fill-opacity="1" stroke="none"/><path d="M 390.625 438.367188 C 386.339844 438.367188 382.863281 434.894531 382.863281 430.609375 L 382.863281 410.601562 C 382.863281 406.3125 386.339844 402.839844 390.625 402.839844 C 394.910156 402.839844 398.386719 406.3125 398.386719 410.601562 L 398.386719 430.605469 C 398.386719 434.894531 394.910156 438.367188 390.625 438.367188 Z M 390.625 438.367188 " fill="#3ea4cc" fill-opacity="1" stroke="none"/><path d="M 102.941406 462.964844 C 98.65625 462.964844 95.179688 459.488281 95.179688 455.203125 L 95.179688 455.042969 C 95.179688 450.753906 98.65625 447.28125 102.941406 447.28125 C 107.226562 447.28125 110.703125 450.753906 110.703125 455.042969 L 110.703125 455.203125 C 110.703125 459.488281 107.226562 462.964844 102.941406 462.964844 Z M 102.941406 462.964844 " fill="#358eba" fill-opacity="1" stroke="none"/><path d="M 198.835938 462.964844 C 194.550781 462.964844 191.074219 459.488281 191.074219 455.203125 L 191.074219 455.042969 C 191.074219 450.753906 194.550781 447.28125 198.835938 447.28125 C 203.121094 447.28125 206.597656 450.753906 206.597656 455.042969 L 206.597656 455.203125 C 206.597656 459.488281 203.121094 462.964844 198.835938 462.964844 Z M 198.835938 462.964844 " fill="#358eba" fill-opacity="1" stroke="none"/><path d="M 294.730469 462.964844 C 290.441406 462.964844 286.96875 459.488281 286.96875 455.203125 L 286.96875 455.042969 C 286.96875 450.753906 290.441406 447.28125 294.730469 447.28125 C 299.015625 447.28125 302.492188 450.753906 302.492188 455.042969 L 302.492188 455.203125 C 302.492188 459.488281 299.015625 462.964844 294.730469 462.964844 Z M 294.730469 462.964844 " fill="#3ea4cc" fill-opacity="1" stroke="none"/><path d="M 390.621094 462.964844 C 386.335938 462.964844 382.859375 459.488281 382.859375 455.203125 L 382.859375 455.042969 C 382.859375 450.753906 386.335938 447.28125 390.621094 447.28125 C 394.910156 447.28125 398.382812 450.753906 398.382812 455.042969 L 398.382812 455.203125 C 398.382812 459.488281 394.910156 462.964844 390.621094 462.964844 Z M 390.621094 462.964844 " fill="#3ea4cc" fill-opacity="1" stroke="none"/><path d="M 451.652344 402.839844 L 41.914062 402.839844 C 45.496094 408.164062 49.289062 413.339844 53.265625 418.363281 L 440.300781 418.363281 C 444.277344 413.339844 448.070312 408.164062 451.652344 402.839844 Z M 451.652344 402.839844 " fill="#358eba" fill-opacity="1" stroke="none"/><path d="M 244.105469 410.601562 C 244.105469 407.191406 246.082031 404.25 248.945312 402.839844 L 41.914062 402.839844 C 45.496094 408.164062 49.289062 413.339844 53.265625 418.363281 L 248.945312 418.363281 C 246.082031 416.953125 244.105469 414.011719 244.105469 410.601562 Z M 244.105469 410.601562 " fill="#236c9b" fill-opacity="1" stroke="none"/></g><g transform="matrix(0.13206017156295854 -0.03538541632261026 0.03538541632261026 0.13206017156295854 132.36393470739137 150.22098189863007)" id="L1_221"><path d="M 485.023438 242.511719 C 485.023438 376.445312 376.445312 485.023438 242.511719 485.023438 C 108.574219 485.023438 0 376.445312 0 242.511719 C 0 108.574219 108.574219 0 242.511719 0 C 376.445312 0 485.023438 108.574219 485.023438 242.511719 Z M 485.023438 242.511719 " fill="#104a7c" fill-opacity="1" stroke="none"/><path d="M 33.074219 364.816406 C 126.738281 524.867188 358.160156 525.074219 451.949219 364.816406 Z M 33.074219 364.816406 " fill="#0c3a6d" fill-opacity="1" stroke="none"/><path d="M 257.09375 364.816406 L 33.074219 364.816406 C 78.542969 442.511719 163.886719 490.003906 256.8125 484.597656 C 214.402344 422.007812 257.09375 373.359375 257.09375 373.359375 Z M 257.09375 364.816406 " fill="#072a5e" fill-opacity="1" stroke="none"/><path d="M 484.777344 162.164062 L 379.238281 108.472656 C 375.035156 106.335938 373.359375 101.191406 375.5 96.988281 C 377.636719 92.78125 382.78125 91.105469 386.984375 93.246094 L 492.523438 146.9375 C 496.726562 149.078125 498.402344 154.222656 496.261719 158.425781 C 494.132812 162.617188 488.992188 164.3125 484.777344 162.164062 Z M 484.777344 162.164062 " fill="#f7df9a" fill-opacity="1" stroke="none"/><path d="M 272.742188 261.820312 C 268.851562 259.152344 267.863281 253.835938 270.53125 249.945312 L 376.066406 96.027344 C 378.734375 92.136719 384.054688 91.148438 387.941406 93.816406 C 391.835938 96.484375 392.824219 101.800781 390.15625 105.691406 L 284.617188 259.605469 C 281.957031 263.492188 276.640625 264.492188 272.742188 261.820312 Z M 272.742188 261.820312 " fill="#f7df9a" fill-opacity="1" stroke="none"/><path d="M 298.160156 209.648438 L 270.53125 249.945312 C 267.863281 253.835938 268.851562 259.152344 272.742188 261.820312 C 276.644531 264.492188 281.957031 263.488281 284.617188 259.605469 L 312.011719 219.660156 C 305.222656 220.953125 299.015625 216.210938 298.160156 209.648438 Z M 298.160156 209.648438 " fill="#f4c758" fill-opacity="1" stroke="none"/><path d="M 275.339844 263.019531 L 169.800781 234.386719 C 165.246094 233.148438 162.558594 228.457031 163.792969 223.90625 C 165.027344 219.351562 169.722656 216.660156 174.273438 217.898438 L 279.8125 246.535156 C 284.363281 247.769531 287.054688 252.460938 285.816406 257.015625 C 284.582031 261.570312 279.882812 264.257812 275.339844 263.019531 Z M 275.339844 263.019531 " fill="#f4c758" fill-opacity="1" stroke="none"/><path d="M 66.503906 320.589844 C 58.492188 320.589844 54.890625 310.484375 61.105469 305.425781 L 166.644531 219.515625 C 170.304688 216.535156 175.683594 217.089844 178.660156 220.746094 C 181.640625 224.40625 181.089844 229.785156 177.429688 232.765625 C 67.628906 321.210938 72.273438 320.589844 66.503906 320.589844 Z M 66.503906 320.589844 " fill="#f4c758" fill-opacity="1" stroke="none"/><path d="M 66.5 109.515625 L 55.867188 109.515625 C 51.152344 109.515625 47.328125 105.691406 47.328125 100.972656 C 47.328125 96.253906 51.152344 92.429688 55.867188 92.429688 L 66.496094 92.429688 C 71.214844 92.429688 75.039062 96.253906 75.039062 100.972656 C 75.039062 105.691406 71.214844 109.515625 66.5 109.515625 Z M 66.5 109.515625 " fill="#358eba" fill-opacity="1" stroke="none"/><path d="M 66.5 162.285156 L 55.867188 162.285156 C 51.152344 162.285156 47.328125 158.460938 47.328125 153.742188 C 47.328125 149.023438 51.152344 145.199219 55.867188 145.199219 L 66.496094 145.199219 C 71.214844 145.199219 75.039062 149.023438 75.039062 153.742188 C 75.039062 158.460938 71.214844 162.285156 66.5 162.285156 Z M 66.5 162.285156 " fill="#358eba" fill-opacity="1" stroke="none"/><path d="M 66.5 215.054688 L 55.867188 215.054688 C 51.152344 215.054688 47.328125 211.230469 47.328125 206.511719 C 47.328125 201.792969 51.152344 197.96875 55.867188 197.96875 L 66.496094 197.96875 C 71.214844 197.96875 75.039062 201.792969 75.039062 206.511719 C 75.039062 211.230469 71.214844 215.054688 66.5 215.054688 Z M 66.5 215.054688 " fill="#358eba" fill-opacity="1" stroke="none"/><path d="M 66.5 267.820312 L 55.867188 267.820312 C 51.152344 267.820312 47.328125 263.996094 47.328125 259.28125 C 47.328125 254.5625 51.152344 250.738281 55.867188 250.738281 L 66.496094 250.738281 C 71.214844 250.738281 75.039062 254.5625 75.039062 259.28125 C 75.039062 263.996094 71.214844 267.820312 66.5 267.820312 Z M 66.5 267.820312 " fill="#358eba" fill-opacity="1" stroke="none"/><path d="M 119.269531 383.988281 C 114.550781 383.988281 110.726562 380.164062 110.726562 375.445312 L 110.726562 364.816406 C 110.726562 360.101562 114.550781 356.277344 119.269531 356.277344 C 123.984375 356.277344 127.808594 360.101562 127.808594 364.816406 L 127.808594 375.445312 C 127.808594 380.164062 123.984375 383.988281 119.269531 383.988281 Z M 119.269531 383.988281 " fill="#358eba" fill-opacity="1" stroke="none"/><path d="M 172.035156 383.988281 C 167.320312 383.988281 163.496094 380.164062 163.496094 375.445312 L 163.496094 364.816406 C 163.496094 360.101562 167.320312 356.277344 172.035156 356.277344 C 176.753906 356.277344 180.578125 360.101562 180.578125 364.816406 L 180.578125 375.445312 C 180.578125 380.164062 176.753906 383.988281 172.035156 383.988281 Z M 172.035156 383.988281 " fill="#358eba" fill-opacity="1" stroke="none"/><path d="M 224.804688 383.988281 C 220.089844 383.988281 216.261719 380.164062 216.261719 375.445312 L 216.261719 364.816406 C 216.261719 360.101562 220.085938 356.277344 224.804688 356.277344 C 229.523438 356.277344 233.347656 360.101562 233.347656 364.816406 L 233.347656 375.445312 C 233.347656 380.164062 229.523438 383.988281 224.804688 383.988281 Z M 224.804688 383.988281 " fill="#358eba" fill-opacity="1" stroke="none"/><path d="M 277.574219 383.988281 C 272.855469 383.988281 269.03125 380.164062 269.03125 375.445312 L 269.03125 364.816406 C 269.03125 360.101562 272.855469 356.277344 277.574219 356.277344 C 282.292969 356.277344 286.117188 360.101562 286.117188 364.816406 L 286.117188 375.445312 C 286.117188 380.164062 282.292969 383.988281 277.574219 383.988281 Z M 277.574219 383.988281 " fill="#3ea4cc" fill-opacity="1" stroke="none"/><path d="M 330.34375 383.988281 C 325.625 383.988281 321.800781 380.164062 321.800781 375.445312 L 321.800781 364.816406 C 321.800781 360.101562 325.625 356.277344 330.34375 356.277344 C 335.0625 356.277344 338.886719 360.101562 338.886719 364.816406 L 338.886719 375.445312 C 338.886719 380.164062 335.0625 383.988281 330.34375 383.988281 Z M 330.34375 383.988281 " fill="#3ea4cc" fill-opacity="1" stroke="none"/><path d="M 383.113281 383.988281 C 378.394531 383.988281 374.570312 380.164062 374.570312 375.445312 L 374.570312 364.816406 C 374.570312 360.101562 378.394531 356.277344 383.113281 356.277344 C 387.828125 356.277344 391.652344 360.101562 391.652344 364.816406 L 391.652344 375.445312 C 391.652344 380.164062 387.828125 383.988281 383.113281 383.988281 Z M 383.113281 383.988281 " fill="#3ea4cc" fill-opacity="1" stroke="none"/><path d="M 435.882812 383.988281 C 431.164062 383.988281 427.339844 380.164062 427.339844 375.445312 L 427.339844 364.816406 C 427.339844 360.101562 431.164062 356.277344 435.882812 356.277344 C 440.597656 356.277344 444.421875 360.101562 444.421875 364.816406 L 444.421875 375.445312 C 444.421875 380.164062 440.597656 383.988281 435.882812 383.988281 Z M 435.882812 383.988281 " fill="#3ea4cc" fill-opacity="1" stroke="none"/><path d="M 456.71875 356.277344 L 55.867188 356.277344 C 51.152344 356.277344 47.328125 360.101562 47.328125 364.816406 C 47.328125 369.535156 51.152344 373.359375 55.867188 373.359375 L 446.726562 373.359375 C 450.285156 367.816406 453.609375 362.113281 456.71875 356.277344 Z M 456.71875 356.277344 " fill="#358eba" fill-opacity="1" stroke="none"/><path d="M 57.957031 85.199219 L 57.957031 375.445312 C 57.957031 380.164062 61.78125 383.988281 66.5 383.988281 C 71.21875 383.988281 75.039062 380.164062 75.039062 375.445312 L 75.039062 67.113281 C 69.039062 72.84375 63.34375 78.886719 57.957031 85.199219 Z M 57.957031 85.199219 " fill="#236c9b" fill-opacity="1" stroke="none"/><path d="M 172.027344 204.992188 C 159.15625 204.992188 148.6875 215.464844 148.6875 228.339844 C 148.6875 241.214844 159.164062 251.6875 172.039062 251.6875 C 184.914062 251.6875 195.386719 241.210938 195.386719 228.339844 C 195.386719 215.464844 184.914062 204.992188 172.027344 204.992188 Z M 172.027344 204.992188 " fill="#fb918a" fill-opacity="1" stroke="none"/><path d="M 277.566406 230.886719 C 264.695312 230.886719 254.222656 241.359375 254.222656 254.230469 C 254.222656 267.105469 264.699219 277.578125 277.578125 277.578125 C 290.449219 277.578125 300.925781 267.105469 300.925781 254.230469 C 300.925781 241.359375 290.449219 230.886719 277.566406 230.886719 Z M 277.566406 230.886719 " fill="#fb918a" fill-opacity="1" stroke="none"/><path d="M 383.101562 78.652344 C 370.230469 78.652344 359.761719 89.125 359.761719 102 C 359.761719 114.871094 370.238281 125.347656 383.113281 125.347656 C 395.988281 125.347656 406.460938 114.871094 406.460938 102 C 406.460938 89.125 395.988281 78.652344 383.101562 78.652344 Z M 383.101562 78.652344 " fill="#fb918a" fill-opacity="1" stroke="none"/><path d="M 488.640625 130.394531 C 475.769531 130.394531 465.300781 140.867188 465.300781 153.742188 C 465.300781 166.617188 475.777344 177.089844 488.652344 177.089844 C 501.527344 177.089844 512 166.613281 512 153.742188 C 512 140.867188 501.527344 130.394531 488.640625 130.394531 Z M 488.640625 130.394531 " fill="#fb918a" fill-opacity="1" stroke="none"/><path d="M 66.488281 288.699219 C 53.621094 288.699219 43.148438 299.175781 43.148438 312.046875 C 43.148438 324.921875 53.625 335.394531 66.503906 335.394531 C 79.375 335.394531 89.847656 324.921875 89.847656 312.046875 C 89.847656 299.175781 79.375 288.699219 66.488281 288.699219 Z M 66.488281 288.699219 " fill="#fb918a" fill-opacity="1" stroke="none"/><path d="M 166.945312 205.554688 C 156.511719 207.882812 148.6875 217.210938 148.6875 228.339844 C 148.6875 241.214844 159.160156 251.6875 172.039062 251.6875 C 180.304688 251.6875 187.570312 247.367188 191.722656 240.871094 C 171.289062 245.433594 155.875 222.882812 166.945312 205.554688 Z M 166.945312 205.554688 " fill="#f46969" fill-opacity="1" stroke="none"/><path d="M 272.484375 231.449219 C 262.050781 233.777344 254.222656 243.105469 254.222656 254.234375 C 254.222656 267.105469 264.699219 277.578125 277.578125 277.578125 C 285.839844 277.578125 293.109375 273.261719 297.261719 266.765625 C 276.828125 271.328125 261.410156 248.777344 272.484375 231.449219 Z M 272.484375 231.449219 " fill="#f46969" fill-opacity="1" stroke="none"/><path d="M 378.019531 79.214844 C 367.585938 81.542969 359.761719 90.871094 359.761719 102 C 359.761719 114.871094 370.238281 125.347656 383.113281 125.347656 C 391.378906 125.347656 398.648438 121.027344 402.796875 114.53125 C 382.363281 119.09375 366.949219 96.542969 378.019531 79.214844 Z M 378.019531 79.214844 " fill="#f46969" fill-opacity="1" stroke="none"/><path d="M 483.558594 130.960938 C 473.125 133.285156 465.300781 142.613281 465.300781 153.742188 C 465.300781 166.617188 475.773438 177.089844 488.652344 177.089844 C 496.914062 177.089844 504.183594 172.769531 508.335938 166.273438 C 487.902344 170.835938 472.488281 148.285156 483.558594 130.960938 Z M 483.558594 130.960938 " fill="#f46969" fill-opacity="1" stroke="none"/><path d="M 61.40625 289.265625 C 50.972656 291.59375 43.148438 300.921875 43.148438 312.046875 C 43.148438 324.921875 53.625 335.394531 66.5 335.394531 C 74.765625 335.394531 82.035156 331.074219 86.183594 324.578125 C 65.75 329.140625 50.335938 306.59375 61.40625 289.265625 Z M 61.40625 289.265625 " fill="#f46969" fill-opacity="1" stroke="none"/><path d="M 172.039062 243.714844 C 163.546875 243.714844 156.65625 236.832031 156.65625 228.339844 C 156.65625 219.847656 163.535156 212.964844 172.027344 212.964844 L 172.039062 212.964844 C 180.53125 212.964844 187.414062 219.847656 187.414062 228.339844 C 187.414062 236.832031 180.53125 243.714844 172.039062 243.714844 Z M 172.039062 243.714844 " fill="#f46969" fill-opacity="1" stroke="none"/><path d="M 163.429688 215.59375 C 159.34375 218.355469 156.660156 223.035156 156.660156 228.339844 C 156.660156 236.832031 163.546875 243.714844 172.039062 243.714844 C 175.421875 243.714844 178.535156 242.609375 181.074219 240.761719 C 170.039062 238.054688 162.144531 227.539062 163.429688 215.59375 Z M 163.429688 215.59375 " fill="#ea5454" fill-opacity="1" stroke="none"/><path d="M 277.578125 269.605469 C 269.085938 269.605469 262.195312 262.722656 262.195312 254.230469 C 262.195312 245.738281 269.074219 238.855469 277.566406 238.855469 L 277.578125 238.855469 C 286.070312 238.855469 292.953125 245.738281 292.953125 254.230469 C 292.953125 262.722656 286.070312 269.605469 277.578125 269.605469 Z M 277.578125 269.605469 " fill="#f46969" fill-opacity="1" stroke="none"/><path d="M 268.96875 241.484375 C 264.882812 244.25 262.195312 248.925781 262.195312 254.234375 C 262.195312 262.726562 269.085938 269.609375 277.578125 269.609375 C 280.957031 269.609375 284.070312 268.503906 286.609375 266.65625 C 275.597656 263.953125 267.683594 253.460938 268.96875 241.484375 Z M 268.96875 241.484375 " fill="#ea5454" fill-opacity="1" stroke="none"/><path d="M 383.113281 117.375 C 374.621094 117.375 367.734375 110.492188 367.734375 102 C 367.734375 93.507812 374.613281 86.625 383.101562 86.625 L 383.113281 86.625 C 391.605469 86.625 398.488281 93.507812 398.488281 102 C 398.488281 110.492188 391.605469 117.375 383.113281 117.375 Z M 383.113281 117.375 " fill="#f46969" fill-opacity="1" stroke="none"/><path d="M 392.148438 114.421875 C 381.132812 111.71875 373.222656 101.222656 374.503906 89.253906 C 370.417969 92.015625 367.734375 96.691406 367.734375 102 C 367.734375 110.492188 374.621094 117.375 383.113281 117.375 C 386.492188 117.375 389.609375 116.269531 392.148438 114.421875 Z M 392.148438 114.421875 " fill="#ea5454" fill-opacity="1" stroke="none"/><path d="M 488.652344 169.117188 C 480.160156 169.117188 473.269531 162.234375 473.269531 153.742188 C 473.269531 145.25 480.148438 138.367188 488.640625 138.367188 L 488.652344 138.367188 C 497.144531 138.367188 504.027344 145.25 504.027344 153.742188 C 504.027344 162.234375 497.144531 169.117188 488.652344 169.117188 Z M 488.652344 169.117188 " fill="#f46969" fill-opacity="1" stroke="none"/><path d="M 480.042969 140.996094 C 475.957031 143.757812 473.273438 148.4375 473.273438 153.742188 C 473.273438 162.234375 480.160156 169.117188 488.652344 169.117188 C 492.03125 169.117188 495.148438 168.011719 497.6875 166.164062 C 486.671875 163.464844 478.757812 152.96875 480.042969 140.996094 Z M 480.042969 140.996094 " fill="#ea5454" fill-opacity="1" stroke="none"/><path d="M 66.5 327.425781 C 58.007812 327.425781 51.121094 320.539062 51.121094 312.050781 C 51.121094 303.558594 57.996094 296.675781 66.488281 296.675781 L 66.5 296.675781 C 74.992188 296.675781 81.875 303.558594 81.875 312.050781 C 81.878906 320.539062 74.992188 327.425781 66.5 327.425781 Z M 66.5 327.425781 " fill="#f46969" fill-opacity="1" stroke="none"/><path d="M 75.535156 324.472656 C 64.503906 321.765625 56.605469 311.253906 57.890625 299.304688 C 53.804688 302.066406 51.121094 306.742188 51.121094 312.050781 C 51.121094 320.542969 58.011719 327.425781 66.503906 327.425781 C 69.882812 327.425781 72.996094 326.320312 75.535156 324.472656 Z M 75.535156 324.472656 " fill="#ea5454" fill-opacity="1" stroke="none"/><path d="M 252.023438 364.816406 C 252.023438 361.132812 254.070312 357.925781 257.09375 356.277344 L 55.867188 356.277344 C 51.152344 356.277344 47.328125 360.101562 47.328125 364.816406 C 47.328125 369.535156 51.152344 373.359375 55.867188 373.359375 L 257.09375 373.359375 C 254.070312 371.710938 252.023438 368.503906 252.023438 364.816406 Z M 252.023438 364.816406 " fill="#236c9b" fill-opacity="1" stroke="none"/></g><g transform="matrix(0.03906244412064552 0 0 0.03906244412064552 251.50000000488285 -9)" id="L1_223"><path d="M 462.839844 280.582031 C 462.839844 408.390625 359.230469 512 231.421875 512 C 103.609375 512 0 408.390625 0 280.582031 C 0 152.769531 103.609375 49.160156 231.421875 49.160156 C 359.230469 49.160156 462.839844 152.769531 462.839844 280.582031 Z M 462.839844 280.582031 " fill="#2ae0af" fill-opacity="1" stroke="none"/><path d="M 239.9375 5.265625 C 236.429688 -1.753906 226.410156 -1.753906 222.898438 5.265625 L 161.535156 128 L 301.308594 128 Z M 239.9375 5.265625 " fill="#f7df9a" fill-opacity="1" stroke="none"/><path d="M 97.535156 256 L 33.535156 384 L 429.304688 384 L 365.308594 256 Z M 97.535156 256 " fill="#f754b1" fill-opacity="1" stroke="none"/><path d="M 301.308594 128 L 161.535156 128 L 97.535156 256 L 365.308594 256 Z M 301.308594 128 " fill="#fb918a" fill-opacity="1" stroke="none"/><path d="M 433.769531 392.925781 L 429.304688 384 L 33.535156 384 L 29.070312 392.929688 C 68.585938 463.945312 144.382812 512 231.421875 512 C 318.457031 512 394.253906 463.945312 433.769531 392.925781 Z M 433.769531 392.925781 " fill="#6060f4" fill-opacity="1" stroke="none"/><path d="M 82.792969 418.445312 L 100.394531 384 L 33.535156 384 L 29.070312 392.929688 C 42.40625 416.894531 59.875 438.238281 80.511719 456.007812 C 76.203125 444.109375 76.613281 430.53125 82.792969 418.445312 Z M 82.792969 418.445312 " fill="#4c4ced" fill-opacity="1" stroke="none"/><path d="M 165.824219 256 L 97.535156 256 L 33.535156 384 L 100.394531 384 Z M 165.824219 256 " fill="#f240ae" fill-opacity="1" stroke="none"/><path d="M 231.25 128 L 161.535156 128 L 97.535156 256 L 165.824219 256 Z M 231.25 128 " fill="#f46969" fill-opacity="1" stroke="none"/><path d="M 248.90625 93.453125 C 254.21875 83.066406 262.917969 75.488281 272.984375 71.355469 L 239.941406 5.265625 C 236.429688 -1.753906 226.410156 -1.753906 222.902344 5.265625 L 161.535156 128 L 231.25 128 Z M 248.90625 93.453125 " fill="#f4c758" fill-opacity="1" stroke="none"/></g><g transform="matrix(0.078125 0 0 0.078125 155 330)" id="L1_225"><path d="M 512 256 C 512 397.386719 397.386719 512 256 512 C 114.613281 512 0 397.386719 0 256 C 0 114.613281 114.613281 0 256 0 C 397.386719 0 512 114.613281 512 256 Z M 512 256 " fill="#104a7c" fill-opacity="1" stroke="none"/><path d="M 43.324219 325.457031 C 28.035156 325.457031 15.640625 313.0625 15.640625 297.773438 C 15.640625 233.550781 40.648438 173.175781 86.0625 127.765625 C 131.472656 82.351562 191.847656 57.34375 256.070312 57.34375 C 271.359375 57.34375 283.753906 69.738281 283.753906 85.027344 C 283.753906 100.316406 271.359375 112.710938 256.070312 112.710938 C 154.023438 112.710938 71.007812 195.730469 71.007812 297.773438 C 71.007812 313.0625 58.613281 325.457031 43.324219 325.457031 Z M 43.324219 325.457031 " fill="#dce9f5" fill-opacity="1" stroke="none"/><path d="M 124.472656 96.480469 C 110.785156 105.46875 97.910156 115.914062 86.0625 127.765625 C 40.648438 173.175781 15.640625 233.554688 15.640625 297.773438 C 15.640625 313.0625 28.035156 325.457031 43.324219 325.457031 C 58.613281 325.457031 71.007812 313.0625 71.007812 297.773438 C 71.007812 233.113281 104.347656 176.105469 154.730469 143.003906 C 128.472656 147.398438 110.019531 118.273438 124.472656 96.480469 Z M 124.472656 96.480469 " fill="#bdd9ef" fill-opacity="1" stroke="none"/><path d="M 283.753906 510.496094 C 283.742188 495.21875 271.351562 482.839844 256.070312 482.839844 C 154.027344 482.839844 71.007812 399.820312 71.007812 297.773438 C 71.007812 282.484375 58.613281 270.089844 43.324219 270.089844 C 28.035156 270.089844 15.640625 282.484375 15.640625 297.773438 C 15.640625 322.441406 19.34375 346.535156 26.464844 369.441406 C 68.289062 453.910156 155.355469 512 256 512 C 265.378906 512 274.636719 511.480469 283.753906 510.496094 Z M 283.753906 510.496094 " fill="#acaaf9" fill-opacity="1" stroke="none"/><path d="M 468.816406 270.089844 C 453.527344 270.089844 441.136719 282.484375 441.136719 297.773438 C 441.136719 399.816406 358.117188 482.835938 256.070312 482.835938 C 240.785156 482.835938 228.390625 495.226562 228.386719 510.515625 C 237.460938 511.488281 246.671875 512 256 512 C 356.957031 512 444.25 453.554688 485.925781 368.65625 C 492.886719 345.988281 496.5 322.160156 496.5 297.773438 C 496.5 282.484375 484.105469 270.089844 468.816406 270.089844 Z M 468.816406 270.089844 " fill="#887eff" fill-opacity="1" stroke="none"/><path d="M 468.816406 325.457031 C 453.527344 325.457031 441.136719 313.0625 441.136719 297.773438 C 441.136719 195.726562 358.117188 112.710938 256.070312 112.710938 C 240.78125 112.710938 228.386719 100.316406 228.386719 85.027344 C 228.386719 69.738281 240.78125 57.34375 256.070312 57.34375 C 320.292969 57.34375 380.667969 82.351562 426.078125 127.761719 C 471.492188 173.175781 496.5 233.550781 496.5 297.773438 C 496.5 313.0625 484.105469 325.457031 468.816406 325.457031 Z M 468.816406 325.457031 " fill="#6060f4" fill-opacity="1" stroke="none"/><path d="M 213.230469 297 C 191.734375 297 174.246094 276.734375 174.246094 251.828125 C 174.246094 226.921875 191.734375 206.65625 213.230469 206.65625 C 234.726562 206.65625 252.214844 226.921875 252.214844 251.828125 C 252.214844 276.734375 234.726562 297 213.230469 297 Z M 213.230469 234.339844 C 207.882812 234.339844 201.929688 241.523438 201.929688 251.828125 C 201.929688 262.132812 207.882812 269.316406 213.230469 269.316406 C 218.574219 269.316406 224.53125 262.132812 224.53125 251.828125 C 224.53125 241.523438 218.574219 234.339844 213.230469 234.339844 Z M 213.230469 234.339844 " fill="#dce9f5" fill-opacity="1" stroke="none"/><path d="M 205.207031 380.144531 C 198.710938 376.113281 196.714844 367.578125 200.75 361.085938 L 288.453125 219.859375 C 292.484375 213.363281 301.019531 211.367188 307.515625 215.402344 C 314.007812 219.433594 316.003906 227.96875 311.972656 234.460938 L 224.265625 375.6875 C 220.261719 382.136719 211.742188 384.203125 205.207031 380.144531 Z M 205.207031 380.144531 " fill="#dce9f5" fill-opacity="1" stroke="none"/><path d="M 212.3125 269.238281 C 207.222656 268.480469 201.929688 261.546875 201.929688 251.828125 C 201.929688 242.109375 207.226562 235.175781 212.3125 234.414062 C 204.726562 225.128906 208.90625 211.035156 220.394531 207.433594 C 218.070312 206.933594 215.679688 206.65625 213.230469 206.65625 C 191.734375 206.65625 174.246094 226.921875 174.246094 251.828125 C 174.246094 276.734375 191.734375 296.996094 213.230469 296.996094 C 215.679688 296.996094 218.070312 296.722656 220.394531 296.21875 C 208.910156 292.621094 204.726562 278.527344 212.3125 269.238281 Z M 212.3125 269.238281 " fill="#bdd9ef" fill-opacity="1" stroke="none"/><path d="M 299.488281 388.804688 C 277.992188 388.804688 260.507812 368.542969 260.507812 343.636719 C 260.507812 318.726562 277.992188 298.464844 299.488281 298.464844 C 320.984375 298.464844 338.476562 318.726562 338.476562 343.636719 C 338.472656 368.542969 320.984375 388.804688 299.488281 388.804688 Z M 299.488281 326.148438 C 294.144531 326.148438 288.1875 333.328125 288.1875 343.636719 C 288.1875 353.941406 294.144531 361.121094 299.488281 361.121094 C 304.835938 361.121094 310.792969 353.941406 310.792969 343.636719 C 310.792969 333.328125 304.835938 326.148438 299.488281 326.148438 Z M 299.488281 326.148438 " fill="#dce9f5" fill-opacity="1" stroke="none"/><path d="M 298.570312 361.046875 C 293.484375 360.289062 288.1875 353.355469 288.1875 343.636719 C 288.1875 333.914062 293.484375 326.980469 298.570312 326.222656 C 290.988281 316.9375 295.167969 302.84375 306.65625 299.242188 C 304.332031 298.738281 301.9375 298.464844 299.488281 298.464844 C 277.992188 298.464844 260.507812 318.726562 260.507812 343.636719 C 260.507812 368.542969 277.992188 388.804688 299.488281 388.804688 C 301.9375 388.804688 304.332031 388.53125 306.65625 388.027344 C 295.167969 384.425781 290.988281 370.335938 298.570312 361.046875 Z M 298.570312 361.046875 " fill="#bdd9ef" fill-opacity="1" stroke="none"/><path d="M 245.15625 289.578125 L 200.75 361.085938 C 196.714844 367.578125 198.710938 376.113281 205.203125 380.144531 C 211.753906 384.210938 220.265625 382.128906 224.265625 375.6875 L 268.753906 304.054688 C 258.210938 313.15625 241.746094 303.453125 245.15625 289.578125 Z M 245.15625 289.578125 " fill="#bdd9ef" fill-opacity="1" stroke="none"/></g><g transform="matrix(0.16979170672604105 0.04549555069874472 -0.04549555069874472 0.16979170672604105 318.16583062668724 294.9077277326736)" id="L1_227"><path d="M 511.992188 256.496094 C 511.992188 397.878906 397.378906 512.492188 255.996094 512.492188 C 114.613281 512.492188 0 397.878906 0 256.496094 C 0 115.113281 114.613281 0.5 255.996094 0.5 C 397.378906 0.5 511.992188 115.113281 511.992188 256.496094 Z M 511.992188 256.496094 " fill="#104a7c" fill-opacity="1" stroke="none"/><path d="M 24.457031 365.796875 C 65.460938 452.5 153.714844 512.492188 255.996094 512.492188 C 358.277344 512.492188 446.53125 452.5 487.535156 365.796875 Z M 24.457031 365.796875 " fill="#0c3a6d" fill-opacity="1" stroke="none"/><path d="M 254.40625 512.476562 C 200.253906 435.875 254.417969 374.542969 254.417969 374.542969 L 254.417969 365.792969 L 24.457031 365.792969 C 65.246094 452.050781 152.804688 511.859375 254.40625 512.476562 Z M 254.40625 512.476562 " fill="#072a5e" fill-opacity="1" stroke="none"/><path d="M 441.058594 187.601562 L 401.675781 113.699219 C 388.660156 89.273438 353.542969 89.582031 340.957031 114.234375 L 282.371094 228.96875 C 271.207031 250.824219 241.355469 254.191406 225.605469 235.367188 L 205.074219 210.828125 C 190.855469 193.832031 164.480469 194.613281 151.289062 212.417969 L 116.886719 258.863281 C 103.894531 276.402344 78.035156 277.476562 63.636719 261.074219 L 63.636719 365.796875 L 487.535156 365.796875 C 514.3125 309.171875 518.949219 244.945312 502.222656 186.226562 L 501.601562 187.410156 C 488.824219 211.761719 453.996094 211.875 441.058594 187.601562 Z M 441.058594 187.601562 " fill="#f754b1" fill-opacity="1" stroke="none"/><path d="M 508.6875 215.300781 L 501.605469 228.863281 C 488.824219 247.554688 453.996094 247.640625 441.058594 229.007812 L 401.675781 172.28125 C 388.660156 153.53125 353.542969 153.765625 340.957031 172.6875 L 282.371094 260.761719 C 271.207031 277.539062 241.355469 280.125 225.605469 265.675781 L 205.074219 246.835938 C 190.855469 233.789062 164.480469 234.390625 151.289062 248.058594 L 116.886719 283.710938 C 103.894531 297.171875 78.035156 298 63.636719 285.410156 L 63.636719 365.796875 L 487.535156 365.796875 C 510.335938 317.582031 516.714844 264.914062 508.6875 215.300781 Z M 508.6875 215.300781 " fill="#fc86bf" fill-opacity="1" stroke="none"/><path d="M 511.644531 269.914062 L 507.664062 273.417969 C 486.953125 291.632812 455.96875 291.75 435.121094 273.691406 L 407.699219 249.9375 C 386.636719 231.691406 355.269531 232.027344 334.597656 250.714844 L 288.011719 292.828125 C 270.546875 308.617188 244.988281 311.578125 224.375 300.207031 L 205.515625 289.800781 C 188.015625 280.144531 166.660156 280.710938 149.699219 291.285156 L 118.472656 310.742188 C 101.847656 321.101562 80.972656 321.867188 63.632812 312.753906 L 63.632812 365.796875 L 487.535156 365.796875 C 501.40625 336.460938 509.878906 304.078125 511.644531 269.914062 Z M 511.644531 269.914062 " fill="#887eff" fill-opacity="1" stroke="none"/><path d="M 118.472656 332.4375 L 149.699219 320.648438 C 185.441406 307.152344 215.804688 324.300781 224.378906 326.054688 C 244.988281 332.945312 270.546875 331.152344 288.011719 321.585938 L 334.601562 296.066406 C 355.273438 284.746094 386.636719 284.542969 407.699219 295.597656 L 435.125 309.992188 C 455.503906 320.6875 485.5625 320.851562 506.25 310.542969 C 509.089844 297.347656 510.925781 283.78125 511.644531 269.917969 L 507.664062 273.417969 C 486.953125 291.632812 455.972656 291.75 435.125 273.691406 L 407.699219 249.941406 C 386.636719 231.695312 355.273438 232.027344 334.601562 250.714844 L 288.011719 292.832031 C 270.546875 308.617188 244.988281 311.578125 224.378906 300.207031 L 205.515625 289.800781 C 188.015625 280.144531 166.660156 280.714844 149.699219 291.285156 L 118.472656 310.742188 C 101.847656 321.105469 80.976562 321.867188 63.636719 312.753906 L 63.636719 333.65625 C 80.976562 339.179688 101.847656 338.714844 118.472656 332.4375 Z M 118.472656 332.4375 " fill="#6060f4" fill-opacity="1" stroke="none"/><path d="M 63.636719 158.355469 L 52.75 158.355469 C 47.917969 158.355469 44 154.441406 44 149.609375 C 44 144.777344 47.917969 140.859375 52.75 140.859375 L 63.636719 140.859375 C 68.46875 140.859375 72.382812 144.773438 72.382812 149.609375 C 72.382812 154.441406 68.46875 158.355469 63.636719 158.355469 Z M 63.636719 158.355469 " fill="#358eba" fill-opacity="1" stroke="none"/><path d="M 63.636719 212.402344 L 52.75 212.402344 C 47.917969 212.402344 44 208.488281 44 203.65625 C 44 198.820312 47.917969 194.90625 52.75 194.90625 L 63.636719 194.90625 C 68.46875 194.90625 72.382812 198.820312 72.382812 203.65625 C 72.382812 208.488281 68.46875 212.402344 63.636719 212.402344 Z M 63.636719 212.402344 " fill="#358eba" fill-opacity="1" stroke="none"/><path d="M 63.636719 266.449219 L 52.75 266.449219 C 47.917969 266.449219 44 262.535156 44 257.703125 C 44 252.871094 47.917969 248.953125 52.75 248.953125 L 63.636719 248.953125 C 68.46875 248.953125 72.382812 252.867188 72.382812 257.703125 C 72.382812 262.535156 68.46875 266.449219 63.636719 266.449219 Z M 63.636719 266.449219 " fill="#358eba" fill-opacity="1" stroke="none"/><path d="M 63.636719 320.496094 L 52.75 320.496094 C 47.917969 320.496094 44 316.582031 44 311.746094 C 44 306.914062 47.917969 303 52.75 303 L 63.636719 303 C 68.46875 303 72.382812 306.914062 72.382812 311.746094 C 72.382812 316.582031 68.46875 320.496094 63.636719 320.496094 Z M 63.636719 320.496094 " fill="#358eba" fill-opacity="1" stroke="none"/><path d="M 117.679688 385.429688 C 112.847656 385.429688 108.933594 381.515625 108.933594 376.683594 L 108.933594 365.792969 C 108.933594 360.960938 112.847656 357.046875 117.679688 357.046875 C 122.511719 357.046875 126.429688 360.960938 126.429688 365.792969 L 126.429688 376.683594 C 126.429688 381.515625 122.511719 385.429688 117.679688 385.429688 Z M 117.679688 385.429688 " fill="#358eba" fill-opacity="1" stroke="none"/><path d="M 171.726562 385.429688 C 166.894531 385.429688 162.980469 381.515625 162.980469 376.683594 L 162.980469 365.792969 C 162.980469 360.960938 166.894531 357.046875 171.726562 357.046875 C 176.558594 357.046875 180.476562 360.960938 180.476562 365.792969 L 180.476562 376.683594 C 180.476562 381.515625 176.558594 385.429688 171.726562 385.429688 Z M 171.726562 385.429688 " fill="#358eba" fill-opacity="1" stroke="none"/><path d="M 225.777344 385.429688 C 220.945312 385.429688 217.027344 381.515625 217.027344 376.683594 L 217.027344 365.792969 C 217.027344 360.960938 220.945312 357.046875 225.777344 357.046875 C 230.605469 357.046875 234.523438 360.960938 234.523438 365.792969 L 234.523438 376.683594 C 234.523438 381.515625 230.605469 385.429688 225.777344 385.429688 Z M 225.777344 385.429688 " fill="#358eba" fill-opacity="1" stroke="none"/><path d="M 279.820312 385.429688 C 274.988281 385.429688 271.074219 381.515625 271.074219 376.683594 L 271.074219 365.792969 C 271.074219 360.960938 274.988281 357.046875 279.820312 357.046875 C 284.652344 357.046875 288.570312 360.960938 288.570312 365.792969 L 288.570312 376.683594 C 288.570312 381.515625 284.652344 385.429688 279.820312 385.429688 Z M 279.820312 385.429688 " fill="#3ea4cc" fill-opacity="1" stroke="none"/><path d="M 333.867188 385.429688 C 329.035156 385.429688 325.121094 381.515625 325.121094 376.683594 L 325.121094 365.792969 C 325.121094 360.960938 329.035156 357.046875 333.867188 357.046875 C 338.699219 357.046875 342.617188 360.960938 342.617188 365.792969 L 342.617188 376.683594 C 342.617188 381.515625 338.699219 385.429688 333.867188 385.429688 Z M 333.867188 385.429688 " fill="#3ea4cc" fill-opacity="1" stroke="none"/><path d="M 387.914062 385.429688 C 383.085938 385.429688 379.167969 381.515625 379.167969 376.683594 L 379.167969 365.792969 C 379.167969 360.960938 383.085938 357.046875 387.914062 357.046875 C 392.746094 357.046875 396.664062 360.960938 396.664062 365.792969 L 396.664062 376.683594 C 396.664062 381.515625 392.746094 385.429688 387.914062 385.429688 Z M 387.914062 385.429688 " fill="#3ea4cc" fill-opacity="1" stroke="none"/><path d="M 441.960938 385.429688 C 437.128906 385.429688 433.214844 381.515625 433.214844 376.683594 L 433.214844 365.792969 C 433.214844 360.960938 437.128906 357.046875 441.960938 357.046875 C 446.792969 357.046875 450.710938 360.960938 450.710938 365.792969 L 450.710938 376.683594 C 450.710938 381.515625 446.792969 385.429688 441.960938 385.429688 Z M 441.960938 385.429688 " fill="#3ea4cc" fill-opacity="1" stroke="none"/><path d="M 491.476562 357.046875 L 52.75 357.046875 C 47.917969 357.046875 44 360.960938 44 365.796875 C 44 370.628906 47.917969 374.542969 52.75 374.542969 L 483.191406 374.542969 C 486.164062 368.832031 488.933594 363 491.476562 357.046875 Z M 491.476562 357.046875 " fill="#358eba" fill-opacity="1" stroke="none"/><path d="M 54.886719 98.089844 L 54.886719 376.683594 C 54.886719 381.515625 58.804688 385.429688 63.636719 385.429688 C 68.46875 385.429688 72.382812 381.515625 72.382812 376.683594 L 72.382812 78.136719 C 66.21875 84.484375 60.371094 91.136719 54.886719 98.089844 Z M 54.886719 98.089844 " fill="#236c9b" fill-opacity="1" stroke="none"/><path d="M 178.75 216.292969 C 170.054688 216.292969 162.996094 209.242188 162.996094 200.542969 C 162.996094 191.847656 170.042969 184.796875 178.738281 184.796875 L 178.75 184.796875 C 187.445312 184.796875 194.496094 191.847656 194.496094 200.542969 C 194.496094 209.242188 187.449219 216.292969 178.75 216.292969 Z M 178.75 216.292969 " fill="#fc86bf" fill-opacity="1" stroke="none"/><path d="M 213.808594 89.589844 L 143.6875 89.589844 C 139.441406 89.589844 136 93.03125 136 97.277344 L 136 141.921875 C 136 146.167969 139.441406 149.609375 143.6875 149.609375 L 160.121094 149.609375 C 162.160156 149.609375 164.117188 150.417969 165.554688 151.859375 L 173.3125 159.617188 C 176.316406 162.617188 181.179688 162.617188 184.183594 159.617188 L 191.941406 151.859375 C 193.382812 150.417969 195.335938 149.609375 197.375 149.609375 L 213.808594 149.609375 C 218.054688 149.609375 221.496094 146.167969 221.496094 141.921875 L 221.496094 97.277344 C 221.492188 93.03125 218.050781 89.589844 213.808594 89.589844 Z M 213.808594 89.589844 " fill="#358eba" fill-opacity="1" stroke="none"/><path d="M 186.761719 143.246094 L 186.761719 94.953125 C 186.761719 92.90625 187.5 91.039062 188.722656 89.589844 L 143.6875 89.589844 C 139.441406 89.589844 136 93.03125 136 97.277344 L 136 141.921875 C 136 146.167969 139.441406 149.609375 143.6875 149.609375 L 160.121094 149.609375 C 162.160156 149.609375 164.117188 150.417969 165.554688 151.859375 L 173.3125 159.617188 C 176.316406 162.617188 181.179688 162.617188 184.183594 159.617188 L 191.941406 151.859375 C 192.175781 151.621094 192.429688 151.410156 192.691406 151.207031 C 189.261719 150.183594 186.761719 147.007812 186.761719 143.246094 Z M 186.761719 143.246094 " fill="#236c9b" fill-opacity="1" stroke="none"/><path d="M 248.671875 365.796875 C 248.671875 361.875 251.035156 358.511719 254.417969 357.046875 L 52.75 357.046875 C 47.917969 357.046875 44 360.960938 44 365.796875 C 44 370.628906 47.917969 374.542969 52.75 374.542969 L 254.417969 374.542969 C 251.035156 373.078125 248.671875 369.714844 248.671875 365.796875 Z M 248.671875 365.796875 " fill="#236c9b" fill-opacity="1" stroke="none"/></g><g transform="matrix(0.0390625 0 0 0.0390625 77.5 340)" id="L1_231"><path d="M 512 256 C 512 397.386719 397.386719 512 256 512 C 114.613281 512 0 397.386719 0 256 C 0 114.613281 114.613281 0 256 0 C 397.386719 0 512 114.613281 512 256 Z M 512 256 " fill="#104a7c" fill-opacity="1" stroke="none"/><path d="M 511.210938 276.167969 C 500.929688 144.210938 390.597656 40.332031 256 40.332031 L 256 163.394531 C 329.417969 163.394531 388.9375 222.914062 388.9375 296.332031 L 508.828125 296.332031 C 509.878906 289.691406 510.679688 282.96875 511.210938 276.167969 Z M 511.210938 276.167969 " fill="#fb918a" fill-opacity="1" stroke="none"/><path d="M 256 125.398438 L 256 163.398438 C 329.417969 163.398438 388.9375 222.914062 388.9375 296.335938 L 426.933594 296.335938 C 426.933594 201.929688 350.402344 125.398438 256 125.398438 Z M 256 125.398438 " fill="#f46969" fill-opacity="1" stroke="none"/><path d="M 508.828125 296.332031 L 388.9375 296.332031 C 388.9375 369.753906 329.417969 429.269531 256 429.269531 L 256 512 C 383.660156 512 489.480469 418.554688 508.828125 296.332031 Z M 508.828125 296.332031 " fill="#409ff5" fill-opacity="1" stroke="none"/><path d="M 256 467.265625 L 256 429.269531 C 329.417969 429.269531 388.9375 369.753906 388.9375 296.332031 L 426.933594 296.332031 C 426.933594 390.738281 350.402344 467.265625 256 467.265625 Z M 256 467.265625 " fill="#0e8ddb" fill-opacity="1" stroke="none"/><path d="M 256 40.332031 C 121.402344 40.332031 11.070312 144.210938 0.789062 276.167969 C 1.316406 282.96875 2.121094 289.691406 3.171875 296.332031 L 123.0625 296.332031 C 123.0625 222.914062 182.582031 163.394531 256 163.394531 Z M 256 40.332031 " fill="#f7df9a" fill-opacity="1" stroke="none"/><path d="M 256 125.398438 L 256 163.398438 C 182.582031 163.398438 123.0625 222.914062 123.0625 296.335938 L 85.066406 296.335938 C 85.066406 201.929688 161.597656 125.398438 256 125.398438 Z M 256 125.398438 " fill="#f4c758" fill-opacity="1" stroke="none"/><path d="M 123.0625 296.332031 L 3.171875 296.332031 C 22.519531 418.554688 128.339844 512 256 512 L 256 429.269531 C 182.582031 429.269531 123.0625 369.753906 123.0625 296.332031 Z M 123.0625 296.332031 " fill="#17c996" fill-opacity="1" stroke="none"/><path d="M 256 467.265625 L 256 429.269531 C 182.582031 429.269531 123.0625 369.753906 123.0625 296.332031 L 85.066406 296.332031 C 85.066406 390.738281 161.597656 467.265625 256 467.265625 Z M 256 467.265625 " fill="#0bb782" fill-opacity="1" stroke="none"/><path d="M 129.585938 113.210938 C 129.585938 89.578125 142.601562 69 161.847656 58.214844 C 73.003906 93.375 8.53125 176.808594 0.789062 276.171875 C 1.316406 282.96875 2.121094 289.691406 3.171875 296.335938 L 123.0625 296.335938 C 123.0625 242.960938 154.519531 196.945312 199.902344 175.789062 C 162.125 180.152344 129.585938 150.617188 129.585938 113.210938 Z M 129.585938 113.210938 " fill="#f4c758" fill-opacity="1" stroke="none"/><path d="M 317.597656 414.15625 C 299.183594 423.804688 278.230469 429.269531 256 429.269531 L 256 512 C 278.664062 512 300.632812 509.039062 321.558594 503.511719 C 295.628906 479.949219 293.898438 439.851562 317.597656 414.15625 Z M 317.597656 414.15625 " fill="#0e8ddb" fill-opacity="1" stroke="none"/><path d="M 151.570312 161.011719 C 111.121094 192.273438 85.066406 241.257812 85.066406 296.332031 L 123.0625 296.332031 C 123.0625 242.960938 154.519531 196.941406 199.902344 175.789062 C 181.800781 177.878906 164.566406 172.179688 151.570312 161.011719 Z M 151.570312 161.011719 " fill="#eab339" fill-opacity="1" stroke="none"/><path d="M 317.597656 414.15625 C 299.183594 423.804688 278.230469 429.269531 256 429.269531 L 256 467.265625 C 271.605469 467.265625 286.714844 465.164062 301.074219 461.246094 C 299.859375 443.550781 305.96875 426.765625 317.597656 414.15625 Z M 317.597656 414.15625 " fill="#057ec9" fill-opacity="1" stroke="none"/></g><g transform="matrix(0.09765625 0 0 0.09765625 62.5 237.5)" id="L1_233"><path d="M 512 256 C 512 397.386719 397.386719 512 256 512 C 114.613281 512 0 397.386719 0 256 C 0 114.613281 114.613281 0 256 0 C 397.386719 0 512 114.613281 512 256 Z M 512 256 " fill="#f4c758" fill-opacity="1" stroke="none"/><path d="M 404.59375 367.078125 C 394.210938 356.691406 377.367188 356.691406 366.984375 367.078125 C 356.597656 377.464844 356.597656 394.304688 366.984375 404.691406 L 417.175781 454.882812 C 430.980469 443.683594 443.59375 431.078125 454.796875 417.28125 Z M 404.59375 367.078125 " fill="#fb918a" fill-opacity="1" stroke="none"/><path d="M 388.023438 390.269531 C 379.675781 381.921875 378.042969 369.410156 383.113281 359.425781 C 361.070312 361.640625 351.042969 388.75 366.980469 404.691406 L 417.175781 454.882812 C 423.683594 449.601562 429.914062 444 435.871094 438.117188 Z M 388.023438 390.269531 " fill="#db4040" fill-opacity="1" stroke="none"/><path d="M 53.371094 61.53125 C -18.621094 137.742188 -17.652344 258.261719 55.496094 333.359375 C 116.480469 395.96875 209.042969 409 283.183594 372.472656 C 308.636719 359.933594 339.140625 364.714844 359.722656 384.035156 C 360.21875 377.996094 362.765625 372.097656 367.382812 367.480469 C 372.085938 362.78125 378.109375 360.238281 384.257812 359.800781 C 365.714844 337.816406 361.269531 306.820312 373.722656 280.496094 C 408.214844 207.582031 395.359375 117.664062 335.132812 57.441406 C 257.207031 -20.484375 129.558594 -19.121094 53.371094 61.53125 Z M 53.371094 61.53125 " fill="#dce9f5" fill-opacity="1" stroke="none"/><path d="M 209.664062 344.25 C 108.765625 315.785156 47.667969 211.898438 71.90625 109.902344 C 81.207031 70.773438 101.578125 37.292969 128.835938 11.859375 C 101.058594 21.960938 75.117188 38.511719 53.371094 61.53125 C -18.621094 137.742188 -17.652344 258.261719 55.496094 333.359375 C 116.480469 395.96875 209.042969 409 283.183594 372.472656 C 308.636719 359.933594 339.140625 364.714844 359.722656 384.035156 C 360.796875 371.011719 371.15625 360.726562 384.257812 359.800781 C 374.933594 348.746094 369.175781 335.410156 367.339844 321.535156 C 322 349.949219 265.273438 359.9375 209.664062 344.25 Z M 209.664062 344.25 " fill="#bdd9ef" fill-opacity="1" stroke="none"/><path d="M 323.671875 366.371094 C 336.90625 368.472656 349.53125 374.46875 359.722656 384.035156 C 360.796875 371.011719 371.15625 360.726562 384.257812 359.800781 C 375.160156 349.019531 369.46875 336.0625 367.484375 322.558594 Z M 323.671875 366.371094 " fill="#97c7e8" fill-opacity="1" stroke="none"/><path d="M 366.980469 367.078125 C 356.597656 377.464844 356.597656 394.304688 366.980469 404.691406 L 377.058594 414.765625 L 414.667969 377.152344 L 404.59375 367.078125 C 394.207031 356.691406 377.367188 356.691406 366.980469 367.078125 Z M 366.980469 367.078125 " fill="#db4040" fill-opacity="1" stroke="none"/><path d="M 388.023438 390.269531 C 379.675781 381.921875 378.042969 369.410156 383.113281 359.425781 C 361.070312 361.640625 351.042969 388.75 366.980469 404.691406 L 417.175781 454.882812 C 423.683594 449.601562 429.914062 444 435.871094 438.117188 Z M 388.023438 390.269531 " fill="#f46969" fill-opacity="1" stroke="none"/><path d="M 366.980469 367.078125 C 356.597656 377.464844 356.597656 394.304688 366.980469 404.691406 L 377.058594 414.765625 L 414.667969 377.152344 L 404.59375 367.078125 C 394.207031 356.691406 377.367188 356.691406 366.980469 367.078125 Z M 366.980469 367.078125 " fill="#f46969" fill-opacity="1" stroke="none"/><path d="M 364.574219 369.851562 C 356.675781 380.273438 357.476562 395.183594 366.980469 404.691406 L 377.058594 414.765625 L 394.789062 397.03125 L 388.023438 390.265625 C 379.675781 381.921875 378.042969 369.40625 383.113281 359.425781 C 382.628906 359.578125 372.015625 360.03125 364.574219 369.851562 Z M 364.574219 369.851562 " fill="#ea5454" fill-opacity="1" stroke="none"/><path d="M 310.976562 311.074219 C 247.710938 374.339844 144.769531 374.339844 81.5 311.074219 C 18.234375 247.808594 18.234375 144.863281 81.5 81.597656 C 144.769531 18.332031 247.710938 18.332031 310.976562 81.597656 C 374.246094 144.863281 374.242188 247.808594 310.976562 311.074219 Z M 310.976562 311.074219 " fill="#409ff5" fill-opacity="1" stroke="none"/><path d="M 80.519531 82.605469 C 18.246094 145.953125 18.566406 248.140625 81.5 311.074219 C 125.828125 355.398438 189.632812 368.664062 245.617188 350.878906 C 125.519531 340.132812 44.601562 224.800781 71.90625 109.902344 C 74.148438 100.460938 77.042969 91.355469 80.519531 82.605469 Z M 80.519531 82.605469 " fill="#0e8ddb" fill-opacity="1" stroke="none"/><path d="M 444.5625 68.695312 L 431.40625 12.28125 C 430.527344 8.511719 428.1875 5.246094 424.898438 3.199219 C 421.609375 1.15625 417.644531 0.503906 413.875 1.378906 L 357.460938 14.535156 C 349.609375 16.367188 344.726562 24.21875 346.558594 32.070312 C 348.390625 39.921875 356.242188 44.804688 364.09375 42.972656 L 384.742188 38.160156 L 273.113281 200.960938 L 148.230469 167.078125 C 143.691406 165.847656 138.835938 166.878906 135.191406 169.84375 L 41.761719 245.898438 C 44.820312 255.492188 48.789062 264.851562 53.675781 273.847656 L 147.8125 197.21875 L 275.46875 231.855469 C 281.457031 233.480469 287.824219 231.140625 291.332031 226.023438 L 410.679688 51.96875 L 416.128906 75.328125 C 417.953125 83.167969 425.792969 88.0625 433.660156 86.230469 C 441.515625 84.398438 446.394531 76.546875 444.5625 68.695312 Z M 444.5625 68.695312 " fill="#fb918a" fill-opacity="1" stroke="none"/><path d="M 301.1875 160.015625 L 273.109375 200.960938 L 148.230469 167.078125 C 143.691406 165.847656 138.835938 166.878906 135.191406 169.84375 L 41.761719 245.898438 C 44.820312 255.488281 48.789062 264.851562 53.675781 273.847656 L 147.8125 197.21875 L 275.46875 231.855469 C 281.457031 233.480469 287.824219 231.140625 291.332031 226.023438 L 324.3125 177.925781 C 312.277344 184.222656 298.054688 173.554688 301.1875 160.015625 Z M 301.1875 160.015625 " fill="#f46969" fill-opacity="1" stroke="none"/><path d="M 195.652344 179.945312 L 148.230469 167.078125 C 143.691406 165.847656 138.835938 166.878906 135.191406 169.84375 L 41.761719 245.898438 C 44.820312 255.488281 48.789062 264.851562 53.675781 273.847656 L 147.8125 197.21875 L 187.917969 208.101562 C 178.84375 198.9375 183.011719 183.226562 195.652344 179.945312 Z M 195.652344 179.945312 " fill="#ea5454" fill-opacity="1" stroke="none"/><path d="M 300.847656 202.960938 C 293.644531 190.488281 277.691406 186.210938 265.214844 193.414062 C 252.738281 200.617188 248.464844 216.570312 255.667969 229.046875 C 262.871094 241.523438 278.824219 245.796875 291.300781 238.59375 C 303.777344 231.390625 308.050781 215.4375 300.847656 202.960938 Z M 300.847656 202.960938 " fill="#fb918a" fill-opacity="1" stroke="none"/><path d="M 166.351562 170.964844 C 159.148438 158.488281 143.195312 154.214844 130.71875 161.417969 C 118.242188 168.621094 113.96875 184.574219 121.171875 197.046875 C 128.375 209.523438 144.328125 213.796875 156.804688 206.59375 C 169.28125 199.390625 173.554688 183.4375 166.351562 170.964844 Z M 166.351562 170.964844 " fill="#fb918a" fill-opacity="1" stroke="none"/><path d="M 278.074219 189.929688 C 273.703125 189.957031 269.277344 191.078125 265.222656 193.421875 C 252.746094 200.621094 248.472656 216.578125 255.675781 229.054688 C 265.710938 246.4375 290.730469 246.328125 300.757812 229.21875 C 280.527344 229.347656 267.828125 207.414062 278.074219 189.929688 Z M 278.074219 189.929688 " fill="#f46969" fill-opacity="1" stroke="none"/><path d="M 143.574219 157.929688 C 123.742188 158.054688 111.136719 179.664062 121.175781 197.054688 C 131.210938 214.4375 156.230469 214.328125 166.257812 197.21875 C 146.027344 197.347656 133.328125 175.414062 143.574219 157.929688 Z M 143.574219 157.929688 " fill="#f46969" fill-opacity="1" stroke="none"/></g><g transform="matrix(0.13671875 0 0 0.13671875 315 140)" id="L1_234"><path d="M 477.847656 239 C 477.847656 370.953125 370.878906 477.925781 238.925781 477.925781 C 106.96875 477.925781 0 370.953125 0 239 C 0 107.046875 106.96875 0.0742188 238.925781 0.0742188 C 370.878906 0.0742188 477.847656 107.046875 477.847656 239 Z M 477.847656 239 " fill="#104a7c" fill-opacity="1" stroke="none"/><path d="M 142.078125 279.34375 C 140.121094 265.761719 128.433594 255.324219 114.308594 255.324219 C 99.847656 255.324219 87.941406 266.261719 86.417969 280.316406 C 86.226562 282.070312 84.710938 283.378906 82.945312 283.378906 L 4.132812 283.378906 C 24.320312 390.851562 116.457031 472.925781 228.621094 477.6875 L 228.621094 428.152344 C 228.621094 426.835938 227.605469 425.761719 226.292969 425.652344 C 211.886719 424.472656 200.5625 412.402344 200.5625 397.691406 C 200.5625 383.003906 211.847656 370.949219 226.222656 369.734375 C 227.574219 369.621094 228.621094 368.515625 228.621094 367.160156 L 228.621094 283.382812 L 146.652344 283.382812 C 144.328125 283.378906 142.410156 281.644531 142.078125 279.34375 Z M 142.078125 279.34375 " fill="#887eff" fill-opacity="1" stroke="none"/><path d="M 425.582031 231.683594 C 425.773438 229.929688 427.289062 228.621094 429.054688 228.621094 L 498.351562 228.621094 C 505.855469 228.621094 512 222.476562 512 214.96875 C 512 96.738281 415.265625 0 297.03125 0 L 297.027344 0 C 289.523438 0 283.378906 6.140625 283.378906 13.648438 L 283.378906 83.847656 C 283.378906 85.164062 284.394531 86.238281 285.703125 86.347656 C 300.113281 87.527344 311.4375 99.597656 311.4375 114.308594 C 311.4375 128.996094 300.148438 141.050781 285.777344 142.265625 C 284.425781 142.378906 283.378906 143.488281 283.378906 144.84375 L 283.378906 214.96875 C 283.378906 222.476562 289.519531 228.621094 297.027344 228.621094 L 365.34375 228.621094 C 367.671875 228.621094 369.589844 230.355469 369.921875 232.65625 C 371.878906 246.238281 383.5625 256.675781 397.6875 256.675781 C 412.152344 256.675781 424.058594 245.738281 425.582031 231.683594 Z M 425.582031 231.683594 " fill="#2ae0af" fill-opacity="1" stroke="none"/><path d="M 425.582031 231.683594 C 425.773438 229.929688 427.289062 228.621094 429.054688 228.621094 L 498.351562 228.621094 C 505.855469 228.621094 512 222.476562 512 214.96875 C 512 96.738281 415.265625 0 297.03125 0 L 297.027344 0 C 289.523438 0 283.378906 6.140625 283.378906 13.648438 L 283.378906 83.847656 C 283.378906 85.164062 284.394531 86.238281 285.703125 86.347656 C 300.113281 87.527344 311.4375 99.597656 311.4375 114.308594 C 311.4375 128.996094 300.148438 141.050781 285.777344 142.265625 C 284.425781 142.378906 283.378906 143.488281 283.378906 144.84375 L 283.378906 214.96875 C 283.378906 222.476562 289.519531 228.621094 297.027344 228.621094 L 365.34375 228.621094 C 367.671875 228.621094 369.589844 230.355469 369.921875 232.65625 C 371.878906 246.238281 383.5625 256.675781 397.6875 256.675781 C 412.152344 256.675781 424.058594 245.738281 425.582031 231.683594 Z M 425.582031 231.683594 " fill="#2ae0af" fill-opacity="1" stroke="none"/><path d="M 231.683594 141.179688 C 229.929688 140.988281 228.621094 139.472656 228.621094 137.707031 L 228.621094 77.734375 C 228.621094 72.1875 226.527344 66.847656 222.757812 62.773438 C 218.167969 57.816406 211.503906 55.3125 204.78125 56.015625 C 97.347656 67.277344 11.4375 153.738281 1.054688 261.421875 C 1.746094 268.847656 2.777344 276.171875 4.132812 283.382812 L 83.847656 283.382812 C 85.160156 283.382812 86.238281 282.363281 86.347656 281.054688 C 87.527344 266.648438 99.597656 255.324219 114.308594 255.324219 C 128.996094 255.324219 141.050781 266.609375 142.265625 280.984375 C 142.378906 282.335938 143.484375 283.382812 144.839844 283.382812 L 228.617188 283.382812 L 228.617188 201.414062 C 228.617188 199.089844 230.355469 197.171875 232.65625 196.839844 C 246.238281 194.882812 256.675781 183.195312 256.675781 169.070312 C 256.675781 154.609375 245.738281 142.703125 231.683594 141.179688 Z M 231.683594 141.179688 " fill="#fc86bf" fill-opacity="1" stroke="none"/><path d="M 450.8125 290.464844 C 446.632812 285.949219 440.757812 283.378906 434.601562 283.378906 L 373.433594 283.378906 C 372.117188 283.378906 371.039062 284.394531 370.933594 285.707031 C 369.75 300.113281 357.683594 311.4375 342.972656 311.4375 C 328.28125 311.4375 316.230469 300.152344 315.015625 285.777344 C 314.902344 284.425781 313.792969 283.378906 312.4375 283.378906 L 228.660156 283.378906 L 228.660156 365.347656 C 228.660156 367.671875 226.925781 369.589844 224.625 369.921875 C 211.042969 371.878906 200.605469 383.566406 200.605469 397.691406 C 200.605469 412.152344 211.542969 424.058594 225.597656 425.582031 C 227.351562 425.773438 228.660156 427.289062 228.660156 429.054688 L 228.660156 477.691406 C 317.8125 481.460938 398.054688 436.117188 442.378906 364.300781 C 449.359375 346.003906 454.058594 326.605469 456.101562 306.449219 C 456.695312 300.601562 454.804688 294.777344 450.8125 290.464844 Z M 450.8125 290.464844 " fill="#409ff5" fill-opacity="1" stroke="none"/><path d="M 290.488281 33.21875 C 288.105469 33.21875 285.738281 33.277344 283.378906 33.363281 L 283.378906 83.847656 C 283.378906 85.164062 284.394531 86.238281 285.707031 86.347656 C 300.113281 87.527344 311.4375 99.597656 311.4375 114.308594 C 311.4375 129 300.152344 141.050781 285.777344 142.265625 C 284.425781 142.382812 283.378906 143.488281 283.378906 144.84375 L 283.378906 214.972656 C 283.378906 222.476562 289.523438 228.621094 297.03125 228.621094 L 365.347656 228.621094 C 367.671875 228.621094 369.589844 230.355469 369.921875 232.65625 C 371.878906 246.238281 383.566406 256.679688 397.691406 256.679688 C 412.152344 256.679688 424.058594 245.738281 425.582031 231.683594 C 425.773438 229.929688 427.289062 228.621094 429.054688 228.621094 L 477.664062 228.621094 C 477.777344 225.953125 477.847656 223.273438 477.847656 220.578125 C 477.847656 117.101562 393.964844 33.21875 290.488281 33.21875 Z M 290.488281 33.21875 " fill="#17c996" fill-opacity="1" stroke="none"/><path d="M 127.925781 78.300781 C 58.558594 112.609375 8.800781 181.109375 1.054688 261.421875 C 1.746094 268.847656 2.777344 276.171875 4.132812 283.382812 L 83.847656 283.382812 C 84.367188 283.382812 84.851562 283.21875 85.25 282.941406 C 67.960938 214.261719 81.410156 138.382812 127.925781 78.300781 Z M 127.925781 78.300781 " fill="#f754b1" fill-opacity="1" stroke="none"/><path d="M 85.164062 282.585938 C 84.554688 283.078125 83.78125 283.378906 82.945312 283.378906 L 4.132812 283.378906 C 24.320312 390.851562 116.457031 472.925781 228.621094 477.6875 L 228.621094 446.488281 C 157.957031 418.355469 103.894531 357.472656 85.164062 282.585938 Z M 85.164062 282.585938 " fill="#6060f4" fill-opacity="1" stroke="none"/><path d="M 316.945312 463.355469 C 285.761719 463.355469 255.972656 457.371094 228.660156 446.503906 L 228.660156 477.691406 C 260.546875 479.039062 291.84375 474.167969 321.390625 463.296875 C 319.910156 463.324219 318.433594 463.355469 316.945312 463.355469 Z M 316.945312 463.355469 " fill="#0e8ddb" fill-opacity="1" stroke="none"/><path d="M 231.683594 141.179688 C 229.929688 140.988281 228.617188 139.472656 228.617188 137.707031 L 228.617188 88.910156 C 121.21875 88.910156 34.152344 175.976562 34.152344 283.378906 L 83.847656 283.378906 C 85.164062 283.378906 86.238281 282.363281 86.347656 281.054688 C 87.53125 266.648438 99.597656 255.320312 114.308594 255.320312 C 129 255.320312 141.050781 266.609375 142.265625 280.984375 C 142.378906 282.332031 143.488281 283.378906 144.84375 283.378906 L 228.621094 283.378906 L 228.621094 201.414062 C 228.621094 199.089844 230.355469 197.171875 232.65625 196.839844 C 246.238281 194.882812 256.679688 183.195312 256.679688 169.070312 C 256.675781 154.609375 245.738281 142.703125 231.683594 141.179688 Z M 231.683594 141.179688 " fill="#f754b1" fill-opacity="1" stroke="none"/><path d="M 84.449219 283.296875 C 84.527344 283.277344 84.601562 283.257812 84.671875 283.234375 C 84.746094 283.207031 84.816406 283.179688 84.886719 283.148438 C 84.929688 283.125 84.976562 283.101562 85.019531 283.078125 C 85.097656 283.035156 85.179688 282.992188 85.253906 282.941406 C 74.269531 239.3125 75.414062 191.214844 91.320312 145.667969 C 56.007812 180.875 34.152344 229.574219 34.152344 283.378906 L 83.851562 283.378906 C 83.996094 283.378906 84.140625 283.363281 84.28125 283.339844 C 84.339844 283.328125 84.394531 283.3125 84.449219 283.296875 Z M 84.449219 283.296875 " fill="#f240ae" fill-opacity="1" stroke="none"/><path d="M 142.078125 279.34375 C 140.121094 265.761719 128.433594 255.324219 114.308594 255.324219 C 99.847656 255.324219 87.941406 266.261719 86.417969 280.316406 C 86.226562 282.070312 84.710938 283.378906 82.945312 283.378906 L 34.152344 283.378906 C 34.152344 359 77.316406 424.535156 140.347656 456.699219 C 167.449219 468.992188 197.253906 476.355469 228.621094 477.6875 L 228.621094 428.152344 C 228.621094 426.835938 227.605469 425.761719 226.292969 425.652344 C 211.886719 424.46875 200.5625 412.402344 200.5625 397.691406 C 200.5625 383.003906 211.847656 370.949219 226.222656 369.734375 C 227.574219 369.621094 228.621094 368.511719 228.621094 367.15625 L 228.621094 283.382812 L 146.652344 283.382812 C 144.328125 283.378906 142.410156 281.644531 142.078125 279.34375 Z M 142.078125 279.34375 " fill="#6060f4" fill-opacity="1" stroke="none"/><path d="M 228.535156 477.683594 C 228.5625 477.683594 228.589844 477.6875 228.621094 477.6875 L 228.621094 446.488281 C 157.957031 418.355469 103.894531 357.472656 85.164062 282.585938 C 84.859375 282.832031 84.519531 283.03125 84.144531 283.164062 C 84.105469 283.179688 84.0625 283.1875 84.019531 283.199219 C 83.871094 283.246094 83.726562 283.296875 83.570312 283.324219 C 83.367188 283.359375 83.164062 283.378906 82.953125 283.378906 C 82.949219 283.378906 82.949219 283.382812 82.945312 283.382812 L 34.152344 283.382812 C 34.152344 387.363281 113.121094 472.746094 228.535156 477.683594 Z M 228.535156 477.683594 " fill="#4c4ced" fill-opacity="1" stroke="none"/><path d="M 231.738281 477.6875 C 337.699219 476.019531 423.085938 389.671875 423.085938 283.378906 L 373.429688 283.378906 C 372.117188 283.378906 371.039062 284.394531 370.933594 285.703125 C 369.75 300.101562 357.683594 311.421875 342.96875 311.421875 C 328.28125 311.421875 316.230469 300.140625 315.015625 285.773438 C 314.898438 284.425781 313.792969 283.378906 312.4375 283.378906 L 228.660156 283.378906 L 228.660156 365.296875 C 228.660156 367.617188 226.925781 369.535156 224.625 369.867188 C 211.039062 371.824219 200.601562 383.503906 200.601562 397.621094 C 200.601562 412.070312 211.542969 423.972656 225.597656 425.496094 C 227.351562 425.6875 228.660156 427.203125 228.660156 428.964844 L 228.660156 477.570312 C 229.6875 477.613281 230.710938 477.65625 231.738281 477.6875 Z M 231.738281 477.6875 " fill="#0e8ddb" fill-opacity="1" stroke="none"/><path d="M 228.660156 446.503906 L 228.660156 477.570312 C 248.148438 478.394531 277.140625 473.703125 303.089844 462.941406 C 276.933594 461.445312 251.898438 455.75 228.660156 446.503906 Z M 228.660156 446.503906 " fill="#057ec9" fill-opacity="1" stroke="none"/></g><g transform="matrix(0.0390625 0 0 0.0390625 87.5 0)"><path d="M 512 256 C 512 397.386719 397.386719 512 256 512 C 114.613281 512 0 397.386719 0 256 C 0 114.613281 114.613281 0 256 0 C 397.386719 0 512 114.613281 512 256 Z M 512 256 " fill="#104a7c" fill-opacity="1" stroke="none"/><path d="M 511.210938 276.167969 C 500.929688 144.210938 390.597656 40.332031 256 40.332031 L 256 163.394531 C 329.417969 163.394531 388.9375 222.914062 388.9375 296.332031 L 508.828125 296.332031 C 509.878906 289.691406 510.679688 282.96875 511.210938 276.167969 Z M 511.210938 276.167969 " fill="#fb918a" fill-opacity="1" stroke="none"/><path d="M 256 125.398438 L 256 163.398438 C 329.417969 163.398438 388.9375 222.914062 388.9375 296.335938 L 426.933594 296.335938 C 426.933594 201.929688 350.402344 125.398438 256 125.398438 Z M 256 125.398438 " fill="#f46969" fill-opacity="1" stroke="none"/><path d="M 508.828125 296.332031 L 388.9375 296.332031 C 388.9375 369.753906 329.417969 429.269531 256 429.269531 L 256 512 C 383.660156 512 489.480469 418.554688 508.828125 296.332031 Z M 508.828125 296.332031 " fill="#409ff5" fill-opacity="1" stroke="none"/><path d="M 256 467.265625 L 256 429.269531 C 329.417969 429.269531 388.9375 369.753906 388.9375 296.332031 L 426.933594 296.332031 C 426.933594 390.738281 350.402344 467.265625 256 467.265625 Z M 256 467.265625 " fill="#0e8ddb" fill-opacity="1" stroke="none"/><path d="M 256 40.332031 C 121.402344 40.332031 11.070312 144.210938 0.789062 276.167969 C 1.316406 282.96875 2.121094 289.691406 3.171875 296.332031 L 123.0625 296.332031 C 123.0625 222.914062 182.582031 163.394531 256 163.394531 Z M 256 40.332031 " fill="#f7df9a" fill-opacity="1" stroke="none"/><path d="M 256 125.398438 L 256 163.398438 C 182.582031 163.398438 123.0625 222.914062 123.0625 296.335938 L 85.066406 296.335938 C 85.066406 201.929688 161.597656 125.398438 256 125.398438 Z M 256 125.398438 " fill="#f4c758" fill-opacity="1" stroke="none"/><path d="M 123.0625 296.332031 L 3.171875 296.332031 C 22.519531 418.554688 128.339844 512 256 512 L 256 429.269531 C 182.582031 429.269531 123.0625 369.753906 123.0625 296.332031 Z M 123.0625 296.332031 " fill="#17c996" fill-opacity="1" stroke="none"/><path d="M 256 467.265625 L 256 429.269531 C 182.582031 429.269531 123.0625 369.753906 123.0625 296.332031 L 85.066406 296.332031 C 85.066406 390.738281 161.597656 467.265625 256 467.265625 Z M 256 467.265625 " fill="#0bb782" fill-opacity="1" stroke="none"/><path d="M 129.585938 113.210938 C 129.585938 89.578125 142.601562 69 161.847656 58.214844 C 73.003906 93.375 8.53125 176.808594 0.789062 276.171875 C 1.316406 282.96875 2.121094 289.691406 3.171875 296.335938 L 123.0625 296.335938 C 123.0625 242.960938 154.519531 196.945312 199.902344 175.789062 C 162.125 180.152344 129.585938 150.617188 129.585938 113.210938 Z M 129.585938 113.210938 " fill="#f4c758" fill-opacity="1" stroke="none"/><path d="M 317.597656 414.15625 C 299.183594 423.804688 278.230469 429.269531 256 429.269531 L 256 512 C 278.664062 512 300.632812 509.039062 321.558594 503.511719 C 295.628906 479.949219 293.898438 439.851562 317.597656 414.15625 Z M 317.597656 414.15625 " fill="#0e8ddb" fill-opacity="1" stroke="none"/><path d="M 151.570312 161.011719 C 111.121094 192.273438 85.066406 241.257812 85.066406 296.332031 L 123.0625 296.332031 C 123.0625 242.960938 154.519531 196.941406 199.902344 175.789062 C 181.800781 177.878906 164.566406 172.179688 151.570312 161.011719 Z M 151.570312 161.011719 " fill="#eab339" fill-opacity="1" stroke="none"/><path d="M 317.597656 414.15625 C 299.183594 423.804688 278.230469 429.269531 256 429.269531 L 256 467.265625 C 271.605469 467.265625 286.714844 465.164062 301.074219 461.246094 C 299.859375 443.550781 305.96875 426.765625 317.597656 414.15625 Z M 317.597656 414.15625 " fill="#057ec9" fill-opacity="1" stroke="none"/></g></defs><g fi:class="KUsePattern" opacity="0.27"><pattern id="pattern_L1_217" width="350" height="350" patternUnits="userSpaceOnUse"><use xlink:href="#L1_217" x="-350" y="-350"/><use xlink:href="#L1_217" x="0" y="-350"/><use xlink:href="#L1_217" x="350" y="-350"/><use xlink:href="#L1_217" x="-350" y="0"/><use xlink:href="#L1_217" x="0" y="0"/><use xlink:href="#L1_217" x="350" y="0"/><use xlink:href="#L1_217" x="-350" y="350"/><use xlink:href="#L1_217" x="0" y="350"/><use xlink:href="#L1_217" x="350" y="350"/></pattern><rect x="0" y="0" width="100%" height="100%" fill="url(#pattern_L1_217)"/></g><g fi:class="KUsePattern" opacity="0.31"><pattern id="pattern_L1_219" width="350" height="350" patternUnits="userSpaceOnUse"><use xlink:href="#L1_219" x="-350" y="-350"/><use xlink:href="#L1_219" x="0" y="-350"/><use xlink:href="#L1_219" x="350" y="-350"/><use xlink:href="#L1_219" x="-350" y="0"/><use xlink:href="#L1_219" x="0" y="0"/><use xlink:href="#L1_219" x="350" y="0"/><use xlink:href="#L1_219" x="-350" y="350"/><use xlink:href="#L1_219" x="0" y="350"/><use xlink:href="#L1_219" x="350" y="350"/></pattern><rect x="0" y="0" width="100%" height="100%" fill="url(#pattern_L1_219)"/></g><g fi:class="KUsePattern" opacity="0.24"><pattern id="pattern_L1_221" width="350" height="350" patternUnits="userSpaceOnUse"><use xlink:href="#L1_221" x="-350" y="-350"/><use xlink:href="#L1_221" x="0" y="-350"/><use xlink:href="#L1_221" x="350" y="-350"/><use xlink:href="#L1_221" x="-350" y="0"/><use xlink:href="#L1_221" x="0" y="0"/><use xlink:href="#L1_221" x="350" y="0"/><use xlink:href="#L1_221" x="-350" y="350"/><use xlink:href="#L1_221" x="0" y="350"/><use xlink:href="#L1_221" x="350" y="350"/></pattern><rect x="0" y="0" width="100%" height="100%" fill="url(#pattern_L1_221)"/></g><g fi:class="KUsePattern" opacity="0.45"><pattern id="pattern_L1_223" width="350" height="350" patternUnits="userSpaceOnUse"><use xlink:href="#L1_223" x="-350" y="-350"/><use xlink:href="#L1_223" x="0" y="-350"/><use xlink:href="#L1_223" x="350" y="-350"/><use xlink:href="#L1_223" x="-350" y="0"/><use xlink:href="#L1_223" x="0" y="0"/><use xlink:href="#L1_223" x="350" y="0"/><use xlink:href="#L1_223" x="-350" y="350"/><use xlink:href="#L1_223" x="0" y="350"/><use xlink:href="#L1_223" x="350" y="350"/></pattern><rect x="0" y="0" width="100%" height="100%" fill="url(#pattern_L1_223)"/></g><g fi:class="KUsePattern" opacity="0.14"><pattern id="pattern_L1_225" width="350" height="350" patternUnits="userSpaceOnUse"><use xlink:href="#L1_225" x="-350" y="-350"/><use xlink:href="#L1_225" x="0" y="-350"/><use xlink:href="#L1_225" x="350" y="-350"/><use xlink:href="#L1_225" x="-350" y="0"/><use xlink:href="#L1_225" x="0" y="0"/><use xlink:href="#L1_225" x="350" y="0"/><use xlink:href="#L1_225" x="-350" y="350"/><use xlink:href="#L1_225" x="0" y="350"/><use xlink:href="#L1_225" x="350" y="350"/></pattern><rect x="0" y="0" width="100%" height="100%" fill="url(#pattern_L1_225)"/></g><g fi:class="KUsePattern" opacity="0.26"><pattern id="pattern_L1_227" width="350" height="350" patternUnits="userSpaceOnUse"><use xlink:href="#L1_227" x="-350" y="-350"/><use xlink:href="#L1_227" x="0" y="-350"/><use xlink:href="#L1_227" x="350" y="-350"/><use xlink:href="#L1_227" x="-350" y="0"/><use xlink:href="#L1_227" x="0" y="0"/><use xlink:href="#L1_227" x="350" y="0"/><use xlink:href="#L1_227" x="-350" y="350"/><use xlink:href="#L1_227" x="0" y="350"/><use xlink:href="#L1_227" x="350" y="350"/></pattern><rect x="0" y="0" width="100%" height="100%" fill="url(#pattern_L1_227)"/></g><g fi:class="KUsePattern" opacity="0.3"><pattern id="pattern_L1_231" width="350" height="350" patternUnits="userSpaceOnUse"><use xlink:href="#L1_231" x="-350" y="-350"/><use xlink:href="#L1_231" x="0" y="-350"/><use xlink:href="#L1_231" x="350" y="-350"/><use xlink:href="#L1_231" x="-350" y="0"/><use xlink:href="#L1_231" x="0" y="0"/><use xlink:href="#L1_231" x="350" y="0"/><use xlink:href="#L1_231" x="-350" y="350"/><use xlink:href="#L1_231" x="0" y="350"/><use xlink:href="#L1_231" x="350" y="350"/></pattern><rect x="0" y="0" width="100%" height="100%" fill="url(#pattern_L1_231)"/></g><g fi:class="KUsePattern" opacity="0.2"><pattern id="pattern_L1_233" width="350" height="350" patternUnits="userSpaceOnUse"><use xlink:href="#L1_233" x="-350" y="-350"/><use xlink:href="#L1_233" x="0" y="-350"/><use xlink:href="#L1_233" x="350" y="-350"/><use xlink:href="#L1_233" x="-350" y="0"/><use xlink:href="#L1_233" x="0" y="0"/><use xlink:href="#L1_233" x="350" y="0"/><use xlink:href="#L1_233" x="-350" y="350"/><use xlink:href="#L1_233" x="0" y="350"/><use xlink:href="#L1_233" x="350" y="350"/></pattern><rect x="0" y="0" width="100%" height="100%" fill="url(#pattern_L1_233)"/></g><g fi:class="KUsePattern" opacity="0.29"><pattern id="pattern_L1_234" width="350" height="350" patternUnits="userSpaceOnUse"><use xlink:href="#L1_234" x="-350" y="-350"/><use xlink:href="#L1_234" x="0" y="-350"/><use xlink:href="#L1_234" x="350" y="-350"/><use xlink:href="#L1_234" x="-350" y="0"/><use xlink:href="#L1_234" x="0" y="0"/><use xlink:href="#L1_234" x="350" y="0"/><use xlink:href="#L1_234" x="-350" y="350"/><use xlink:href="#L1_234" x="0" y="350"/><use xlink:href="#L1_234" x="350" y="350"/></pattern><rect x="0" y="0" width="100%" height="100%" fill="url(#pattern_L1_234)"/></g><g fi:class="KUsePattern" transform="matrix(1 0 0 1 20 20)" opacity="0.49"><pattern id="pattern_UNKNOWN" width="350" height="350" patternUnits="userSpaceOnUse"><use xlink:href="#UNKNOWN" x="-350" y="-350"/><use xlink:href="#UNKNOWN" x="0" y="-350"/><use xlink:href="#UNKNOWN" x="350" y="-350"/><use xlink:href="#UNKNOWN" x="-350" y="0"/><use xlink:href="#UNKNOWN" x="0" y="0"/><use xlink:href="#UNKNOWN" x="350" y="0"/><use xlink:href="#UNKNOWN" x="-350" y="350"/><use xlink:href="#UNKNOWN" x="0" y="350"/><use xlink:href="#UNKNOWN" x="350" y="350"/></pattern><rect x="0" y="0" width="100%" height="100%" fill="url(#pattern_UNKNOWN)"/></g></svg>