<svg xmlns="http://www.w3.org/2000/svg" width="117.223" height="175.501" viewBox="0 0 117.223 175.501">
  <g id="Grupo_64" data-name="Grupo 64" transform="translate(-3389.671 8691)">
    <path id="Caminho_244" data-name="Caminho 244" d="M289.63,110.12c.1-9.52-8-21.71-24.51-17.25-15,4-10.68,27.63-29,21.34S200.38,114.27,198,135s15.06,42.82,31.75,36.28,26.48-25,29.13-27.94c8.1,1,19.84,6.91,31.47-9.07C299.6,121.53,289.63,110.12,289.63,110.12Z" transform="translate(3191.89 -8756.272)" fill="#263238"/>
    <path id="Caminho_245" data-name="Caminho 245" d="M262.46,111.57c-2.73,3.51-7.07,4.71-9.69,2.67s-2.52-6.53.21-10,7.06-4.71,9.68-2.67S265.19,108.06,262.46,111.57Z" transform="translate(3191.89 -8756.272)" fill="#407bff"/>
    <path id="Caminho_246" data-name="Caminho 246" d="M250.32,71.18,250,74.36a3.71,3.71,0,0,1-2,2.83l-4.93,2.71a7,7,0,0,1-6.38.17l-1.25-.61c.26-5.32,4.46-10.88,4.46-10.88l1-1.72a3.11,3.11,0,0,1,4.25-1.18l3.43,2a3.59,3.59,0,0,1,1.74,3.5Z" transform="translate(3191.89 -8756.272)" fill="#7f3e3b"/>
    <path id="Caminho_247" data-name="Caminho 247" d="M236.18,153.23l-.57-.6-.5-.55-1-1.07-1.84-2.12c-1.19-1.42-2.36-2.85-3.49-4.3-2.28-2.88-4.48-5.81-6.55-8.86s-4.06-6.14-5.88-9.39c-.47-.8-.92-1.61-1.35-2.45l-1.32-2.47-1.23-2.54-.31-.63-.17-.37-.34-.79a13.3,13.3,0,0,1-.78-3,16.58,16.58,0,0,1,.1-4.89,24.433,24.433,0,0,1,.91-3.7,39.062,39.062,0,0,1,2.55-5.87,87.546,87.546,0,0,1,6-9.66c2.09-3,4.26-5.87,6.47-8.69,1.11-1.41,2.21-2.81,3.35-4.19s2.24-2.71,3.49-4.18L245.2,83.29c-1,1.08-2.2,2.36-3.26,3.59s-2.15,2.51-3.19,3.78q-3.09,3.855-5.82,7.85a62.538,62.538,0,0,0-4.66,8,23,23,0,0,0-1.4,3.63,6.908,6.908,0,0,0-.26,1.31c0,.31,0,.46,0,.25a2.16,2.16,0,0,0-.13-.57,1.8,1.8,0,0,0-.08-.21l.12.21.29.51,1.15,2c.83,1.33,1.61,2.68,2.53,4a88.635,88.635,0,0,0,5.75,7.6c2,2.45,4.21,4.84,6.47,7.11q1.71,1.68,3.47,3.3c.59.52,1.17,1.06,1.76,1.56l.88.74.43.35.37.28Z" transform="translate(3191.89 -8756.272)" fill="#407bff"/>
    <path id="Subtração_9" data-name="Subtração 9" d="M366.639,35.434h-37.9C336.528,15.859,343.362.156,343.43,0l37.35,2.84a.084.084,0,0,1-.005.021c-.174.577-1.142,3.712-3.155,8.82a246.3,246.3,0,0,1-10.981,23.752Z" transform="translate(3068 -8550.933)" fill="#263238"/>
    <path id="Subtração_10" data-name="Subtração 10" d="M366.626,10.173H354.581c1.6-4.893,3.264-8.315,4.959-10.173,4.13.841,6.633,4.258,7.24,9.88l-.107.2-.047.089Z" transform="translate(3068 -8525.673)" opacity="0.2"/>
    <path id="Subtração_8" data-name="Subtração 8" d="M389.7,34.582H354.578c-.3-19.115.038-34.429.042-34.582l31.63,2.4a40.262,40.262,0,0,1,3.564,14.233,107,107,0,0,1-.117,17.948Z" transform="translate(3068 -8550.082)" fill="#263238"/>
    <path id="Caminho_257" data-name="Caminho 257" d="M228.08,151.05c-1.06,4.09-2.78,8.58-4.85,18.46-1.9,8.32-3.29,23-3.69,35.83,5.58,5,24.17,4.14,42.82,3.26.06-12.13,5-23.32,18.59-48.15a10,10,0,0,0-5.47-14.6c-1.62-.54-3.35-1.08-5.13-1.58a137.5,137.5,0,0,0-19-4.32c-2.11-.28-4.31-.51-6.42-.69a16.18,16.18,0,0,0-16.85,11.79Z" transform="translate(3191.89 -8756.272)" fill="#fff"/>
    <path id="Caminho_258" data-name="Caminho 258" d="M273.88,122.55c-3.05,5.75-7.63,16.5-4.58,21.48,0,0-8.74,2.83-22,10.45-2.4-5.92,3-14.77,3-14.77,7.32-.05,8.67-5.07,8.92-10Z" transform="translate(3191.89 -8756.272)" fill="#7f3e3b"/>
    <path id="Subtração_6" data-name="Subtração 6" d="M405.846,100.748H368.091a233.516,233.516,0,0,1,3.753-36.608,298.612,298.612,0,0,1,7.6-32.1A239.994,239.994,0,0,1,387.4,9.117C389.6,3.811,391.48.251,392.19.046A1.36,1.36,0,0,1,392.562,0c1.319,0,4.2,1.319,7.017,3.208,3.234,2.172,5.575,4.508,6.421,6.407,2,4.419-.543,12.6-3.483,22.077-2.091,6.737-4.46,14.373-5.568,21.873-.609,4.125.007,10.56,1.883,19.673,1.46,7.092,3.688,15.833,7.014,27.508Z" transform="translate(3068 -8616.248)" fill="#407bff"/>
    <path id="Caminho_260" data-name="Caminho 260" d="M267.89,125.47l-8.69,4.23a18.711,18.711,0,0,1-.43,3.45c2.72.22,7.16-1.78,8.26-4.4a9.42,9.42,0,0,0,.86-3.28Z" transform="translate(3191.89 -8756.272)" opacity="0.2"/>
    <path id="Caminho_261" data-name="Caminho 261" d="M284.37,116.87c-6,8.39-8.35,12.06-15.64,14-11,3-20.18-5.58-16.86-15.43,3-8.86,12.28-21.09,23.16-19.72C285.75,97.09,290.36,108.48,284.37,116.87Z" transform="translate(3191.89 -8756.272)" fill="#7f3e3b"/>
    <path id="Caminho_262" data-name="Caminho 262" d="M287.64,109.31c-8.65-1.21-13.55,5-9.62,12.15C287.28,123,290.66,112.63,287.64,109.31Z" transform="translate(3191.89 -8756.272)" fill="#263238"/>
    <path id="Caminho_263" data-name="Caminho 263" d="M288.06,111c-9.52.76-14.73-14-25.36-12.7,2.93-4,14.5-7.22,20.28-2.66C290.42,101.51,288.06,111,288.06,111Z" transform="translate(3191.89 -8756.272)" fill="#263238"/>
    <path id="Caminho_264" data-name="Caminho 264" d="M261.71,107.5a25.35,25.35,0,0,1-5.63,3.17c.38,1.43,2.3,2,2.3,2Z" transform="translate(3191.89 -8756.272)" fill="#630f0f"/>
    <path id="Caminho_265" data-name="Caminho 265" d="M260.63,117.36a9.13,9.13,0,0,1-1.3-.58.24.24,0,0,1-.08-.34.28.28,0,0,1,.36-.09,7.15,7.15,0,0,0,6.21.4.26.26,0,0,1,.34.1.25.25,0,0,1-.13.33,7.49,7.49,0,0,1-5.4.18Z" transform="translate(3191.89 -8756.272)" fill="#263238"/>
    <path id="Caminho_266" data-name="Caminho 266" d="M281.1,125.91a7.09,7.09,0,0,1-5.73-.08c-2.17-1.11-1.12-3.8,1.27-5.29,2.15-1.33,5.87-2.36,7.19-.38S283.57,124.94,281.1,125.91Z" transform="translate(3191.89 -8756.272)" fill="#7f3e3b"/>
    <path id="Caminho_267" data-name="Caminho 267" d="M274.13,108.77a.43.43,0,0,1-.2-.33,3.72,3.72,0,0,0-1.95-2.92.47.47,0,0,1-.22-.65.55.55,0,0,1,.69-.23,4.62,4.62,0,0,1,2.51,3.67.51.51,0,0,1-.47.54.5.5,0,0,1-.36-.08Z" transform="translate(3191.89 -8756.272)" fill="#263238"/>
    <path id="Caminho_268" data-name="Caminho 268" d="M260.89,100.58a.49.49,0,0,1-.28-.23.5.5,0,0,1,.23-.67,5.32,5.32,0,0,1,4.69-.25.47.47,0,0,1,.18.66.56.56,0,0,1-.71.21,4.25,4.25,0,0,0-3.71.24.56.56,0,0,1-.4.04Z" transform="translate(3191.89 -8756.272)" fill="#263238"/>
    <path id="Caminho_269" data-name="Caminho 269" d="M267.82,108.47l2.15,3.29S270.6,108.28,267.82,108.47Z" transform="translate(3191.89 -8756.272)" fill="#263238"/>
    <path id="Caminho_270" data-name="Caminho 270" d="M261.37,105.05l-3.65-.66S260.62,102.45,261.37,105.05Z" transform="translate(3191.89 -8756.272)" fill="#263238"/>
    <rect id="Retângulo_86" data-name="Retângulo 86" width="16.94" height="10" rx="1.77" transform="matrix(0.881, -0.473, 0.473, 0.881, 3479.065, -8529.414)" fill="#263238"/>
    <path id="Caminho_271" data-name="Caminho 271" d="M293.54,233.69l-2.45-2.07a3.72,3.72,0,0,1-1.31-3.15l.46-5.62a7,7,0,0,1,3.38-5.4l1.2-.71c4.3,3.15,6.61,9.72,6.61,9.72l.87,1.8a3.11,3.11,0,0,1-1.36,4.2l-3.54,1.76a3.57,3.57,0,0,1-3.86-.53Z" transform="translate(3191.89 -8756.272)" fill="#7f3e3b"/>
    <path id="Caminho_272" data-name="Caminho 272" d="M281.64,148.93c.55.76,1,1.38,1.44,2.06l1.33,2c.88,1.33,1.73,2.67,2.57,4,1.66,2.7,3.26,5.45,4.77,8.28s2.93,5.76,4.23,8.81c.66,1.51,1.25,3.11,1.82,4.7.28.81.53,1.66.79,2.48a25.4,25.4,0,0,1,.74,2.87c.38,1.89.58,3.53.76,5.17s.29,3.22.39,4.78c.2,3.14.32,6.23.39,9.3.15,6.15.15,12.19.05,18.34l-12.89.14c-.28-5.87-.66-11.85-1.17-17.7-.26-2.93-.55-5.85-.92-8.69-.18-1.43-.38-2.83-.61-4.18a36.544,36.544,0,0,0-.79-3.71,12.5,12.5,0,0,0-.52-1.45c-.25-.6-.47-1.18-.73-1.78-.54-1.19-1.09-2.38-1.73-3.58-1.25-2.39-2.63-4.79-4.16-7.15s-3.12-4.7-4.8-7c-.84-1.15-1.7-2.28-2.57-3.4l-1.31-1.66c-.43-.53-.9-1.12-1.27-1.55Z" transform="translate(3191.89 -8756.272)" fill="#407bff"/>
    <path id="Subtração_7" data-name="Subtração 7" d="M344.786,103.641H323.628C329.517,89.964,337.706,70.2,340.8,56.509c1.216-5.382,2.188-10.746,3.129-15.933,1.6-8.823,3.109-17.156,5.559-24.06,2.736-7.711,6.3-12.683,11.222-15.647A9.424,9.424,0,0,1,365.355,0a44.584,44.584,0,0,1,7.5.8A1.761,1.761,0,0,1,374.2,1.863a1.74,1.74,0,0,1-.207,1.7c-.871,1.037-1.758,2.029-2.7,3.08C361.785,17.276,349.953,30.513,344.786,103.641Z" transform="translate(3068 -8619.142)" fill="#407bff"/>
    <path id="Caminho_274" data-name="Caminho 274" d="M235.35,207.17l-5.15-.51c-.64-.07-1.18.23-1.19.67l-.1,2.62c0,.44.49.85,1.13.91l5.15.52c.65.06,1.18-.24,1.2-.68l.09-2.62C236.5,207.64,236,207.24,235.35,207.17Z" transform="translate(3191.89 -8756.272)" fill="#407bff"/>
    <path id="Caminho_275" data-name="Caminho 275" d="M282.93,128.25c-3.56,2.67-8.06,2.67-10.05,0s-.7-7,2.86-9.63,8.06-2.66,10.05,0S286.49,125.59,282.93,128.25Z" transform="translate(3191.89 -8756.272)" fill="#407bff"/>
    <path id="Caminho_276" data-name="Caminho 276" d="M282.43,127.57c-2.75,2.06-5.84,2.58-6.89,1.17s.32-4.22,3.08-6.28,5.84-2.58,6.89-1.17S285.19,125.51,282.43,127.57Z" transform="translate(3191.89 -8756.272)" fill="#fff"/>
    <path id="Caminho_277" data-name="Caminho 277" d="M282.68,117.94c5.68-2.91,6.25-12.34,5.24-15.72a10.26,10.26,0,0,1,2.94,5.79,12.94,12.94,0,0,1-4.58,12.56C284.51,120.43,282.68,117.94,282.68,117.94Z" transform="translate(3191.89 -8756.272)" fill="#407bff"/>
    <path id="Caminho_278" data-name="Caminho 278" d="M275.23,233.14a27.427,27.427,0,0,1-3.5-.23c-2.94-.38-12.68-2.15-14.62-8.82a8.91,8.91,0,0,1,.28-5.34c1.45-4.3,5.07-7.44,8.07-9.69a23.228,23.228,0,0,1,3.39-1.95c2.68-1.37,5.73-2.92,6.28-5.45,1.05-4.87-6.2-8.73-10.1-10.8l-.53-.28c-1.1-.59-2.26-1.15-3.39-1.7-4.15-2-8.45-4.08-11.12-8s-3.32-9-2.25-15.81a56.7,56.7,0,0,1,9.34-23.86,52.76,52.76,0,0,1,15.49-13.9.28.28,0,0,1,.38.09.26.26,0,0,1-.09.37,52,52,0,0,0-15.33,13.76,56.07,56.07,0,0,0-9.25,23.62c-1.05,6.69-.34,11.73,2.16,15.43s6.82,5.87,10.9,7.84c1.14.55,2.31,1.12,3.42,1.71l.52.28c4,2.14,11.52,6.12,10.38,11.39-.61,2.79-3.77,4.4-6.57,5.83a23.324,23.324,0,0,0-3.3,1.89c-2.94,2.21-6.49,5.27-7.89,9.44a8.59,8.59,0,0,0-.27,5c1.85,6.35,11.31,8.06,14.17,8.43A25,25,0,0,0,288.27,229a.272.272,0,1,1,.29.46,24.94,24.94,0,0,1-13.33,3.68Z" transform="translate(3191.89 -8756.272)" fill="#263238"/>
    <g id="freepik--Notes--inject-456" transform="translate(3191.89 -8756.272)">
      <path id="Caminho_279" data-name="Caminho 279" d="M265.78,77.28l-4.66-1.68a.55.55,0,0,0-.73.52v8.21l-.14-.08a3.91,3.91,0,0,0-2.09-.18,4,4,0,0,0-1.93.84,1.69,1.69,0,0,0,.5,3,3.7,3.7,0,0,0,1.36.24,6,6,0,0,0,.73-.05,4.07,4.07,0,0,0,1.93-.85,1.88,1.88,0,0,0,.73-1.55V80l3.93,1.42a.55.55,0,0,0,.73-.51V77.79A.55.55,0,0,0,265.78,77.28Zm-.73,2.85-3.57-1.28v-2l3.57,1.29Z" fill="#263238"/>
      <path id="Caminho_280" data-name="Caminho 280" d="M313.1,83.57l-3.73-3.27a.54.54,0,0,0-.49-.11.55.55,0,0,0-.38.33l-1.13,2.88h0l-1.86,4.73a3.84,3.84,0,0,0-2-1.05c-1.65-.35-3.14.25-3.38,1.38a1.83,1.83,0,0,0,.64,1.7,3.94,3.94,0,0,0,1.88.94,4.359,4.359,0,0,0,.94.1,3.62,3.62,0,0,0,1.16-.18A1.89,1.89,0,0,0,306,89.85h0l2.08-5.3,3.14,2.75a.548.548,0,0,0,.87-.21l1.13-2.9A.52.52,0,0,0,313.1,83.57ZM311.38,86l-2.86-2.5.72-1.82,2.85,2.5Z" fill="#263238"/>
      <path id="Caminho_281" data-name="Caminho 281" d="M315,109.43h0v-9.29a.55.55,0,0,0-.36-.5l-7-2.37a.52.52,0,0,0-.69.5v8a3.72,3.72,0,0,0-2.17-.25c-1.62.27-2.75,1.34-2.57,2.44a1.75,1.75,0,0,0,1.18,1.31,3.58,3.58,0,0,0,1.33.24,5.489,5.489,0,0,0,.7,0c1.57-.26,2.67-1.27,2.58-2.33V101.5l5.95,2v4.56l-.13-.07a3.79,3.79,0,0,0-2-.18c-1.62.26-2.75,1.33-2.57,2.43a1.78,1.78,0,0,0,1.18,1.32,3.49,3.49,0,0,0,1.32.24,4.34,4.34,0,0,0,.71-.06C314,111.5,315.08,110.49,315,109.43Zm-7-10.94,5.95,2v1.9l-5.95-2Z" fill="#263238"/>
      <path id="Caminho_282" data-name="Caminho 282" d="M290.37,74.74h0l-1.57-5.38-.8-2.62a.47.47,0,0,0-.43-.34L281,66.12a.46.46,0,0,0-.39.18.43.43,0,0,0-.08.42l.75,2.58h0l1.23,4.24h-.13a3.44,3.44,0,0,0-1.79.35,3.4,3.4,0,0,0-1.4,1.17,1.46,1.46,0,0,0,1.14,2.4h.28a3.55,3.55,0,0,0,1.51-.36,3.48,3.48,0,0,0,1.4-1.17,1.61,1.61,0,0,0,.23-1.47h0l-1.39-4.75,5.62.24,1.14,3.92h-.13a3.44,3.44,0,0,0-1.79.35,3.48,3.48,0,0,0-1.4,1.17,1.46,1.46,0,0,0,1.15,2.4h.27a3.57,3.57,0,0,0,1.51-.37,3.34,3.34,0,0,0,1.4-1.17A1.61,1.61,0,0,0,290.37,74.74Zm-8.28-6-.47-1.63,5.61.24.48,1.63Z" fill="#263238"/>
    </g>
  </g>
</svg>
