<svg xmlns="http://www.w3.org/2000/svg" width="756.603" height="725.078" viewBox="0 0 756.603 725.078">
  <g id="freepik--Character--inject-933" transform="translate(-141.548 -136.369)">
    <path id="Caminho_587" data-name="Caminho 587" d="M521.169,617.468c-2.5,4.269-254.984,50.983-267.582,49.178a7.367,7.367,0,0,1-1.77-.451c-15.93-4.928-94.053-59-99.988-63.546-14.646-11.349,25.544-111.267,40.328-128.932,9.822-11.731,30.125-18.637,30.125-18.637s35.226-177.972,66.566-218.647c7.844-10.169,164.922-35.573,194.873-26.654,12.806,3.818,46.3,29.674,47.825,34.949h0C533.282,252.571,523.529,613.164,521.169,617.468Z" transform="translate(17.595 176.754)" fill="#37474f"/>
    <path id="Caminho_588" data-name="Caminho 588" d="M447.742,591.162c-2.5,4.269-254.984,50.983-267.582,49.178a7.367,7.367,0,0,1-1.77-.451c15.2-69.2,86.765-394.015,89.68-396.445s153.643-22.489,190.049-24.884C459.854,226.265,450.1,586.858,447.742,591.162Z" transform="translate(91.022 203.06)" fill="#263238"/>
    <path id="Caminho_589" data-name="Caminho 589" d="M218.153,254.6c-2.881-2.048-9.371-36.337-5.657-43.868,4.165-8.434,65.108-13.015,69.585-6.941s11,40.328,9.336,41.821-11.557,4.1-13.223,2.082-5.553-30.576-6.941-31.929-43.972,1.77-45.118,4.165,6.421,30.715,4.894,32.207S220.964,256.508,218.153,254.6Z" transform="translate(172.521 159.699)" fill="#37474f"/>
    <path id="Caminho_590" data-name="Caminho 590" d="M251.664,292.252c43.972,98.148,150.276,261.3,197.823,220.9,71.147-60.388,119.249-194.006,138.3-248.043,10.724-30.264-143.474-80.934-152.914-53.447-13.431,39.079-34.5,120.672-46.714,132.229-6.455,6.073-56.883-64.831-95.129-98.46C237.921,196.985,237.47,260.913,251.664,292.252Z" transform="translate(252.706 166.503)" fill="#f7a9a0"/>
    <path id="Caminho_591" data-name="Caminho 591" d="M491.1,311.649c-13.882,30.888-66.566,83.086-84.127,90.79s-110.3-76.353-108.352-95.753,57.265-123,87.91-138.823S505.329,279.65,491.1,311.649Z" transform="translate(387.989 74.467)" fill="#f7a9a0"/>
    <path id="Caminho_592" data-name="Caminho 592" d="M319.091,317.4s2.221-43.9-8.885-81.038c-9.3-31.235-26.654-76.353-10.065-82.149,34.081-11.592,77.325,101.411,77.325,101.411s11.071,52.926-21.656,67.364C335.264,332.082,319.091,317.4,319.091,317.4Z" transform="translate(374.773 42.026)" fill="#f7a9a0"/>
    <path id="Caminho_593" data-name="Caminho 593" d="M311.9,229.565c2.256,17.769,21.9,4.963,21.9,4.963s-23.843,25.266-14.472,42.688c9.128,16.8,32.311.451,34.012-.694-1.249,1.353-22.559,25.162-11.314,41.647,11.7,17.179,32.172-3.193,33.491-4.512-.8,1.631-10.759,23.531.659,34.185,19.609,18.221,46.61-37.066,67.4-43.243,0,0,14.507,34.012,15.132,34.914,0,0,26.758-52.059,16.867-79.823a18.671,18.671,0,0,0-19.782-12.529S466.2,231.3,457.8,218.008c-4.338-6.941-19.123-5.9-19.123-5.9s7.878-13.049-.382-24.294c-6.56-9.093-20.338-6.941-20.338-6.941s1.735-16-7.982-23.114C390.439,143.6,307.145,191.528,311.9,229.565Z" transform="translate(420.384 46.568)" fill="#f7a9a0"/>
    <path id="Caminho_594" data-name="Caminho 594" d="M400.933,163.02c.278,0,.173-.555-.174-.451-31.235,9.058-62.783,28.6-82.878,54.419-.659.833.451,2.291,1.354,1.492C345.022,195.817,369.733,177.77,400.933,163.02Z" transform="translate(435.156 64.698)" fill="#263238"/>
    <path id="Caminho_595" data-name="Caminho 595" d="M410.571,172c.347-.174,0-.729-.278-.625-32.138,9.544-67.086,32.519-86.765,65-.694,1.111-.173,2.776.694,1.562C338.973,217.33,382.425,185.123,410.571,172Z" transform="translate(448.805 86.464)" fill="#263238"/>
    <path id="Caminho_596" data-name="Caminho 596" d="M330.715,251.116c20.06-30.437,47.859-51.365,79.476-68.752.416-.243,0-.8-.347-.694-17.769,4.3-36.788,17.353-50.705,29.014a95.788,95.788,0,0,0-29.5,39.738C329.4,251.046,330.3,251.775,330.715,251.116Z" transform="translate(464.594 111.886)" fill="#263238"/>
    <path id="Caminho_597" data-name="Caminho 597" d="M331.7,178.06c-.764,1.041,1.6,1.076.833,2.117-3.193,4.373-20.129,32.415-12.355,41.126,6.212,6.941,19.921,3.471,24.676,0l11.9-8.607-8.19,12.217a60.284,60.284,0,0,0-8.225,17.665,21.344,21.344,0,0,0,1.6,17.353,12.286,12.286,0,0,0,14.438,5.553,37.2,37.2,0,0,0,15.479-10.412l12.043-12.563-7.219,15.722a56.045,56.045,0,0,0-4.338,13.882,23.112,23.112,0,0,0,1.041,13.4,10.967,10.967,0,0,0,9.579,6.594,24.3,24.3,0,0,0,12.7-5.1,193.8,193.8,0,0,0,22.455-20.13c3.471-3.471,7.323-7.149,11.141-10.412A36.093,36.093,0,0,1,442.1,248.2a39.389,39.389,0,0,0-11.869,9.266c-3.471,3.679-6.941,7.5-10.238,11.314a166.136,166.136,0,0,1-21.865,21.761A28.666,28.666,0,0,1,383.1,297.17a15.722,15.722,0,0,1-14.542-9.2,28.424,28.424,0,0,1-1.77-16.416,63.2,63.2,0,0,1,4.581-15.375l4.824,3.158A42.793,42.793,0,0,1,358,271.731a18.012,18.012,0,0,1-12.043-.451,19.99,19.99,0,0,1-8.989-7.809,26.966,26.966,0,0,1-2.048-22.142,65.628,65.628,0,0,1,9.336-19.262l3.714,3.471c-6.143,4.165-21.032,9.787-32.068.174C303.411,211,327.046,182.919,331.7,178.06Z" transform="translate(421.862 103.001)" fill="#263238"/>
    <path id="Caminho_598" data-name="Caminho 598" d="M335.615,193.511a35.227,35.227,0,0,1-10.689,2.5,8.26,8.26,0,0,1-7.67-3.471,16.971,16.971,0,0,1-1.77-9.44c.208-3.471.59-7.392,1.145-11.279a28.7,28.7,0,0,0-5,10.724,16.763,16.763,0,0,0,1.423,12.772,12.216,12.216,0,0,0,5.622,4.373,12.875,12.875,0,0,0,6.768.243A19.506,19.506,0,0,0,335.615,193.511Z" transform="translate(418.568 87.585)" fill="#263238"/>
    <path id="Caminho_599" data-name="Caminho 599" d="M426.573,206.9l160.48,111.753s-95.858,198.622-155.1,198.066S287.124,367.484,257.486,303.139s-11.869-118.8,47.825-60.145,81.073,82.7,83.016,81.906C392.075,323.373,426.573,206.9,426.573,206.9Z" transform="translate(251.674 174.253)" fill="#ffc727"/>
    <path id="Caminho_600" data-name="Caminho 600" d="M587.081,318.579S520.62,456.326,464.118,502.173c-11.314,9.2-22.246,14.681-32.172,14.576-59.243-.521-144.828-149.235-174.466-213.58-18.359-39.808-18.533-75.867-1.839-83.606,10.412-4.789,26.932,1.111,49.664,23.461,60.041,59,81.073,82.7,83.016,81.906,3.748-1.527,38.176-118,38.176-118Z" transform="translate(251.645 174.327)" fill="#ffc727"/>
    <path id="Caminho_601" data-name="Caminho 601" d="M419.5,309.239q-6.351-5.206-12.807-10.412l-26.238-20.615c-17.353-13.639-35.226-26.724-53.169-39.634-10.2-7.358-20.2-15.062-30.68-21.969a.486.486,0,0,0-.59.764c8.329,7.358,17.353,14.091,25.925,21.066s17.353,13.882,26.029,20.824q26.2,20.372,52.961,39.912c5,3.679,9.891,7.566,15.062,11,2.638,1.77,5.136,3.714,7.809,5.449s5.483,3.262,8.121,5.1a.285.285,0,0,0,.347-.451C427.931,316.77,423.87,312.849,419.5,309.239Z" transform="translate(381.261 198.07)" fill="#263238"/>
    <path id="Caminho_602" data-name="Caminho 602" d="M302.582,240.008a406.055,406.055,0,0,0-15.062,50.636c-2.083,8.5-3.748,17.075-5.379,25.648a201.273,201.273,0,0,0-3.471,25.752c0,.313.451.347.555,0,2.638-8.26,4.581-16.867,6.525-25.335s4.026-16.971,5.935-25.509c3.852-17.041,8.329-33.942,11.661-51.087a.416.416,0,0,0-.763-.1Z" transform="translate(338.772 255.536)" fill="#263238"/>
    <path id="Caminho_603" data-name="Caminho 603" d="M464.118,493.18c-11.314,9.2-22.246,14.681-32.172,14.576-59.243-.521-144.828-149.235-174.466-213.58-18.359-39.808-18.533-75.867-1.839-83.606Z" transform="translate(251.645 183.32)" opacity="0.1"/>
    <path id="Caminho_604" data-name="Caminho 604" d="M175.353,687.742H577.941c-2.672-18.811-83.294-395.647-117.583-453.085-16.277-27.313-83.086-45.291-127.96-1.944C246.674,315.626,172.091,684.029,175.353,687.742Z" transform="translate(83.265 173.705)" fill="#ffc727"/>
    <path id="Caminho_605" data-name="Caminho 605" d="M305.515,376.441c-1.041-5.171-2.152-10.412-3.471-15.444-2.325-10.1-4.859-20.129-7.531-30.159-3.783-14.091-7.844-28.181-12.078-42.2-.208-2.221-.625-4.477-.937-6.7-.416-3.019-.8-6.039-1.284-9.058-.937-6.074-1.944-12.147-2.846-18.221a.278.278,0,1,0-.555,0,175.189,175.189,0,0,0,1.423,18.6,18.148,18.148,0,0,0,.451,3.019c-.521-1.666-1.006-3.471-1.527-5.067-1.77-5.553-3.748-11.036-5.588-16.555s-3.471-11.418-5.8-16.936a.258.258,0,0,0-.486.173c1.111,5.137,2.707,10.134,4.061,15.2s2.568,9.891,3.818,14.854c2.568,10.03,5.518,19.99,8.191,29.986,5.379,19.991,10.412,40.12,16.034,60.041,1.527,5.449,3.054,10.9,4.651,16.346s3.158,11.522,5.345,17.041c0,.278.59.243.555,0A142.806,142.806,0,0,0,305.515,376.441Z" transform="translate(305.68 249.978)" fill="#263238"/>
    <path id="Caminho_606" data-name="Caminho 606" d="M334.935,231.034a34.324,34.324,0,0,1-13.466,19.158c-7.288,4.512-16.451,4.442-24.606,3.471-17.353-1.77-33.526-9.926-47.79-20.3-4.061-2.985-7.982-6.178-11.869-9.405a114.8,114.8,0,0,1-10.9-10.065c-.243-.243-.59,0-.347.382,3.3,3.471,6.386,7.288,9.718,10.828a116.489,116.489,0,0,0,10.412,9.614,107.591,107.591,0,0,0,23.6,15.027A84.613,84.613,0,0,0,296,257.133c8.607.937,18.325.764,25.856-4.269a34.95,34.95,0,0,0,13.882-21.83.4.4,0,0,0-.8,0Z" transform="translate(208.34 191.28)" fill="#263238"/>
    <path id="Caminho_607" data-name="Caminho 607" d="M301.57,307.664c-15.514,4.234-57.542-9.475-72.882-34.879-1.041-1.735.937-20.615,2.291-43.66.729-13.882,1.249-29.6.694-43.868,0-2.915,90.235,18.221,90.235,18.221s-7.6,30.264-6.49,55.113a33.629,33.629,0,0,0,.868,5.831v.972C318.853,276.429,320.415,302.562,301.57,307.664Z" transform="translate(214.566 120.099)" fill="#f7a9a0"/>
    <path id="Caminho_608" data-name="Caminho 608" d="M312.5,264.372a6.457,6.457,0,0,0,0,.972,61.12,61.12,0,0,1-9.2.833c-49.8.868-68.37-60.006-73.3-81.177,13.882,1.145,85.064,17.769,87.84,18.394h0s-7.6,30.229-6.49,55.113a34.158,34.158,0,0,0,1.145,5.865Z" transform="translate(218.529 120.147)" fill="#263238"/>
    <path id="Caminho_609" data-name="Caminho 609" d="M238.42,203.71h0" transform="translate(239.331 166.372)" fill="none" stroke="#fcaba0" stroke-linecap="round" stroke-linejoin="round" stroke-width="1"/>
    <path id="Caminho_610" data-name="Caminho 610" d="M228.1,191.641c-9.891,31.686,6.386,123.483,28.841,144.029,32.554,29.847,86.14,32.971,111.545-6.247,24.606-38.176,1.319-157.252-23.808-175.959C307.685,125.873,242.646,144.823,228.1,191.641Z" transform="translate(206.542 10.604)" fill="#f7a9a0"/>
    <path id="Caminho_611" data-name="Caminho 611" d="M255.272,171.571c0-.208-.451.382-.382.625,1.249,6.178,1.666,13.431-3.471,16.451v.312C258.083,186.842,257.459,177.194,255.272,171.571Z" transform="translate(271.449 86.862)" fill="#263238"/>
    <path id="Caminho_612" data-name="Caminho 612" d="M255.178,170.024c-10.065.972-7.427,21.066,1.943,20.164S263.646,169.052,255.178,170.024Z" transform="translate(264.88 83.064)" fill="#263238"/>
    <path id="Caminho_613" data-name="Caminho 613" d="M262.125,170.279c0-.243.555.208.555.486.625,6.247,2.395,13.292,8.295,14.611.208,0,.208.382,0,.347C264,185.689,261.778,176.422,262.125,170.279Z" transform="translate(297.81 83.607)" fill="#263238"/>
    <path id="Caminho_614" data-name="Caminho 614" d="M266.846,168.248c9.891-2.082,13.327,17.908,4.165,19.817S258.551,170.018,266.846,168.248Z" transform="translate(297.808 78.385)" fill="#263238"/>
    <path id="Caminho_615" data-name="Caminho 615" d="M252.333,178.592c2.638-1.076,4.894-2.464,7.427-3.783a13.465,13.465,0,0,0,6.941-5.275,4.338,4.338,0,0,0-1.388-5.067,10.689,10.689,0,0,0-10.759.312,15.722,15.722,0,0,0-8.017,7.878,4.581,4.581,0,0,0,5.8,5.935Z" transform="translate(258.666 66.202)" fill="#263238"/>
    <path id="Caminho_616" data-name="Caminho 616" d="M277.833,173.883a73.5,73.5,0,0,1-8.26-1.006,13.536,13.536,0,0,1-8.225-2.638,4.338,4.338,0,0,1-.416-5.24,10.62,10.62,0,0,1,10.2-3.471,15.721,15.721,0,0,1,10.238,4.685,4.581,4.581,0,0,1-3.54,7.67Z" transform="translate(293.242 61.61)" fill="#263238"/>
    <path id="Caminho_617" data-name="Caminho 617" d="M252.65,188.214c1.7,1.284,3.471,3.089,5.726,2.985a16.451,16.451,0,0,0,6.49-2.464.209.209,0,0,1,.313.278,8.5,8.5,0,0,1-7.462,4.442,6.941,6.941,0,0,1-5.622-4.859C251.886,188.249,252.407,188.041,252.65,188.214Z" transform="translate(272.995 127.935)" fill="#263238"/>
    <path id="Caminho_618" data-name="Caminho 618" d="M274.494,187.582a25.508,25.508,0,0,1-9.058,9.128,11.28,11.28,0,0,1-6.941,1.354c-5.136-.659-5.865-5.206-5.484-9.232a26.957,26.957,0,0,1,1.458-6.282,32.692,32.692,0,0,0,20.025,5.032Z" transform="translate(275.167 114.094)" fill="#fff"/>
    <path id="Caminho_619" data-name="Caminho 619" d="M253.528,233.075a21.345,21.345,0,0,0,15.409,7.566,26.1,26.1,0,0,0,7.67-.659,6.56,6.56,0,0,0,1.423-.347l1.319-.382a1.562,1.562,0,0,0,1.076-1.562h0a5.141,5.141,0,0,0,0-.625h0v-.555c-.486-4.789-1.909-12.043-1.909-12.043,1.839.659,11.314,3.471,10.828,1.006-3.957-20.546-8.4-43.417-16.693-63.061a.59.59,0,0,0-1.111.312c3.054,19.921,9.544,39.183,12.945,59a36.892,36.892,0,0,0-10.412-1.735c-.659.278,3.019,13.882,3.054,16.1v.243c-7.913,2.082-14.333.451-22.836-3.922C253.528,232.173,253.077,232.659,253.528,233.075Z" transform="translate(276.212 63.569)" fill="#263238"/>
    <path id="Caminho_620" data-name="Caminho 620" d="M250.632,269.044c17.943,0,14.334-76.353,14.334-76.353s18.325,8.607,33.387,9.683a158.052,158.052,0,0,0,35.227-1.8c2.5-.694-28.737-12.911-28.737-12.911s41.265,2.5,52.753-4.3,10.412-9.718,9.683-13.882-30.333-38.454-83.641-28.563a62.47,62.47,0,0,0-47.061,35.747s-15.722,27.105-14.819,39.669C223.11,233.192,231.578,269.044,250.632,269.044Z" transform="translate(198.07 6.812)" fill="#263238"/>
    <path id="Caminho_621" data-name="Caminho 621" d="M260.662,193.605s-21.171-29.361-34.532-21.761,2.881,50.324,18.776,55.981a16.034,16.034,0,0,0,21.379-8.954Z" transform="translate(196.751 84.541)" fill="#f7a9a0"/>
    <path id="Caminho_622" data-name="Caminho 622" d="M224.149,174.45c-.243,0-.312.312,0,.416,11.141,4.3,17.11,14.507,21.344,25.092-3.471-4.061-7.878-6.247-13.292-2.221-.278.208,0,.659.312.59a9.891,9.891,0,0,1,10.932,3.262,49.806,49.806,0,0,1,5.31,8.746c.555.972,2.325.416,1.943-.729v-.243C250.733,195.239,239.489,175.63,224.149,174.45Z" transform="translate(203.556 94.083)" fill="#263238"/>
    <path id="Caminho_623" data-name="Caminho 623" d="M331.541,145.5a127.751,127.751,0,0,0-36.337-8.989c-13.882-1.111-57.612,4.338-67.676,13.6s-10.9,50.671-10.9,56.709,4.408,42.411,18.047,50.566,11.939-53.829,31.825-75.381S331.541,145.5,331.541,145.5Z" transform="translate(185.497)" fill="#ffc727"/>
    <path id="Caminho_624" data-name="Caminho 624" d="M327.218,144.114s-45.118,14.993-65,36.545S243.958,264.2,230.319,256.04c-6-3.471-9.093-9.232-11.939-18.811,1.909-18.255,7.913-46.679,22.073-66.843,13.292-18.915,37.17-29.292,63.061-33.456A148.512,148.512,0,0,1,327.218,144.114Z" transform="translate(189.82 1.386)" opacity="0.1"/>
    <path id="Caminho_625" data-name="Caminho 625" d="M236.668,290.674c.382-16.589,15.1-61.568,31.513-87.736s67.5-43.348,74.791-43.348c17.63.174,23.843,5.206,26.55,3.471s-16-13.882-21.1-16.8-18.706-9.093-26.342-8.538-54.523,7.462-70.7,28.355-37.76,78.366-32.623,92.56c1.215,3.471,5.935,5.414,7.635,10.238,2.221,6.351,3.922,13.882,6.073,18.151C234.169,290.639,236.633,292.1,236.668,290.674Z" transform="translate(188.851 3.264)" fill="#ffc727"/>
    <path id="Caminho_626" data-name="Caminho 626" d="M249.631,165.906a81,81,0,0,1-11.8-7.844,59.385,59.385,0,0,1-10.412-9.961c-.208-.278-.659,0-.451.278a46.161,46.161,0,0,0,9.44,11.314,39.115,39.115,0,0,0,12.772,6.941A.43.43,0,1,0,249.631,165.906Z" transform="translate(210.906 28.703)" fill="#263238"/>
    <path id="Caminho_627" data-name="Caminho 627" d="M233.155,196.595c-.521-1.18-1.353-2.186-1.978-3.471a20.445,20.445,0,0,1-1.735-3.991,37.1,37.1,0,0,0-2.256-7.948,29.083,29.083,0,0,0-4.13-5.31,11.105,11.105,0,0,1-3.471-6.559c0-.347-.555-.312-.555,0,.243,5,3.783,8.4,6.143,12.494a52.054,52.054,0,0,1,2.672,8.468,12.876,12.876,0,0,0,4.685,6.7C232.808,197.428,233.329,197.046,233.155,196.595Z" transform="translate(191.426 80.788)" fill="#263238"/>
    <path id="Caminho_628" data-name="Caminho 628" d="M236.274,189.631c-1.666-1.839-3.471-3.471-4.928-5.414a48.833,48.833,0,0,1-3.818-6c-1.145-2.048-2.117-4.165-3.228-6.247s-2.881-4.755-4.061-7.254c0-.312-.625,0-.486.312,1.215,2.568,2.013,5.379,3.124,8.017a62.476,62.476,0,0,0,3.471,6.594,35.992,35.992,0,0,0,4.2,5.761,17.631,17.631,0,0,0,5.518,4.477C236.24,189.943,236.378,189.735,236.274,189.631Z" transform="translate(193.166 69.705)" fill="#263238"/>
    <path id="Caminho_629" data-name="Caminho 629" d="M238.29,181.991a47.443,47.443,0,0,1-9.475-9.718c-2.568-3.471-4.963-7.392-7.254-11.141-.174-.278-.625,0-.521.208a56.217,56.217,0,0,0,6.282,12.286,29.184,29.184,0,0,0,4.477,5,30.438,30.438,0,0,0,6.143,3.852C238.29,182.616,238.567,182.2,238.29,181.991Z" transform="translate(196.356 60.894)" fill="#263238"/>
    <path id="Caminho_630" data-name="Caminho 630" d="M239.712,177.547a16.519,16.519,0,0,1-4.581-4.2c-1.527-1.8-2.985-3.471-4.408-5.484s-2.776-3.471-4.13-5.345a16.451,16.451,0,0,1-3.262-5.9.278.278,0,0,0-.521,0A16.832,16.832,0,0,0,225,163a43.063,43.063,0,0,0,4.061,6.282,61.121,61.121,0,0,0,4.894,5.518,10.689,10.689,0,0,0,5.483,3.471C239.851,178.31,240.128,177.755,239.712,177.547Z" transform="translate(200.765 49.582)" fill="#263238"/>
    <path id="Caminho_631" data-name="Caminho 631" d="M238.537,167.182c-1.6-1.423-3.193-2.881-4.651-4.408s-2.915-3.193-4.269-4.824-2.95-3.471-4.269-5.206a.289.289,0,0,0-.486.312,42.13,42.13,0,0,0,3.471,5.831,43.239,43.239,0,0,0,4.061,5.136,53.806,53.806,0,0,0,4.789,4.546,16.589,16.589,0,0,0,5.518,3.471.416.416,0,0,0,.451-.59A32.244,32.244,0,0,0,238.537,167.182Z" transform="translate(205.723 40.129)" fill="#263238"/>
    <path id="Caminho_632" data-name="Caminho 632" d="M254.84,163.621a68.234,68.234,0,0,0-5.31-5.657,65.714,65.714,0,0,0-6.108-5.067A68.541,68.541,0,0,0,230.2,144.88c-.278,0-.59.208-.312.416,8.121,6.316,16.52,12.321,24.572,18.706C254.84,164.211,255.014,163.864,254.84,163.621Z" transform="translate(217.982 21.027)" fill="#263238"/>
    <path id="Caminho_633" data-name="Caminho 633" d="M254.47,154.817a34.013,34.013,0,0,0-5.865-5.067,72.392,72.392,0,0,0-14.507-7.184.28.28,0,1,0-.278.486c4.408,2.638,8.885,5.206,13.153,8.086a71.49,71.49,0,0,1,6.108,4.546c1.944,1.666,3.471,3.714,5.345,5.449,0,0,.416,0,.347-.208a19.332,19.332,0,0,0-4.3-6.108Z" transform="translate(227.619 15.22)" fill="#263238"/>
    <path id="Caminho_634" data-name="Caminho 634" d="M256.461,152.252a33.98,33.98,0,0,0-5.414-5.067,42,42,0,0,0-12.39-6.525c-.312,0-.486.347-.208.521a82.669,82.669,0,0,1,11.765,7.7c1.839,1.458,3.471,3.019,5.414,4.512s3.471,3.471,5.241,4.824a.184.184,0,1,0,.243-.278,36.612,36.612,0,0,0-4.651-5.692Z" transform="translate(239.059 10.602)" fill="#263238"/>
    <path id="Caminho_635" data-name="Caminho 635" d="M254.655,146.3a66.842,66.842,0,0,0-5.518-3.783,20.441,20.441,0,0,0-5.9-2.95c-.312,0-.451.347-.208.486,3.471,2.533,6.941,5.136,10.412,7.739a57.2,57.2,0,0,1,8.156,8.746s.382,0,.312-.174a20.822,20.822,0,0,0-7.253-10.065Z" transform="translate(250.41 7.909)" fill="#263238"/>
    <path id="Caminho_636" data-name="Caminho 636" d="M258.156,145.066a33.8,33.8,0,0,0-11.349-6.316c-.312,0-.486.382-.208.486a40.711,40.711,0,0,1,10.412,6.941,58.165,58.165,0,0,1,8.364,9.405c0,.174.451,0,.347,0A28.355,28.355,0,0,0,258.156,145.066Z" transform="translate(259.194 5.883)" fill="#263238"/>
    <path id="Caminho_637" data-name="Caminho 637" d="M265.643,152.141a17.794,17.794,0,0,0-1.527-2.429,27.147,27.147,0,0,0-3.887-4.338,59.282,59.282,0,0,0-9.718-6.768c-.278-.174-.555.312-.243.486a48.342,48.342,0,0,1,9.128,6.941,43.532,43.532,0,0,1,3.748,4.234c.555.729,1.076,1.492,1.562,2.256a14.437,14.437,0,0,0,1.492,2.291.278.278,0,0,0,.451-.208A6.944,6.944,0,0,0,265.643,152.141Z" transform="translate(268.262 5.437)" fill="#263238"/>
    <path id="Caminho_638" data-name="Caminho 638" d="M265.3,149.493a38.639,38.639,0,0,0-3.193-3.471,34.7,34.7,0,0,0-3.471-3.158c-1.284-.972-2.638-1.943-3.887-2.985-.278-.243-.625.208-.312.451a29.786,29.786,0,0,1,3.644,3.3l3.262,3.471,3.262,3.471a43.425,43.425,0,0,0,3.262,3.471c.173.174.451,0,.347-.278a23.073,23.073,0,0,0-2.915-4.269Z" transform="translate(278.6 8.501)" fill="#263238"/>
    <path id="Caminho_639" data-name="Caminho 639" d="M328.275,227.165c-7.739-.8,27.036-23.669,35.4-16.971s50.393,110.573,36.719,223.3S184.28,677.785,176.055,660.918c-3.471-6.941-1.076-23.947,4.373-30.263,7.7-8.919,149.756-119.735,165.755-189.633C360.343,378.864,347.293,229.108,328.275,227.165Z" transform="translate(81.245 179.358)" fill="#455a64"/>
    <path id="Caminho_640" data-name="Caminho 640" d="M337.275,269.424C209.176,404.4,93.466,635.953,163.295,648c60.354,10.412,249.882-44.6,296.561-64.449,20.407-8.642-32.9-180.471-54.106-169.781-18.359,9.128-42.445,19.158-45.326,18.949-6.143-.416,19.3-82.982,41.647-153.33C434.8,175.441,385.377,218.754,337.275,269.424Z" transform="translate(1.722 196.168)" fill="#f7a9a0"/>
    <path id="Caminho_641" data-name="Caminho 641" d="M428.939,261.444c12.529,13.431,3.193,29.986,3.193,29.986a39.183,39.183,0,0,1,21.83,15.236c8.676,13.6-8.885,33.144-8.885,33.144a48.589,48.589,0,0,1,20.476,19.782c6.941,13.882-7.913,36.094-7.913,36.094a42.133,42.133,0,0,1,6.941,28.7c-4.2,26.862-42.411,43.139-66.566,53.759S295.321,496.16,280.5,498.971L211.09,344.356s94.886-78.4,124.941-86.765C361.748,250.581,414.883,246.382,428.939,261.444Z" transform="translate(171.81 283.799)" fill="#f7a9a0"/>
    <path id="Caminho_642" data-name="Caminho 642" d="M333.693,262.243c-28.84,1.041-55.842,10.585-83.294,18.568a.489.489,0,0,0,.278.937c27.244-8.26,55.738-11,83.294-18.151a.694.694,0,0,0-.278-1.353Z" transform="translate(268.062 310.973)" fill="#263238"/>
    <path id="Caminho_643" data-name="Caminho 643" d="M333.45,276.24a74.686,74.686,0,0,0-19.019,5.171c-6.594,2.256-13.119,4.651-19.643,7.149q-19.574,7.5-38.766,15.965c-.555.243-.312,1.18.312.937,13.015-4.928,26.1-9.718,39.287-14.125q9.891-3.262,19.887-6.455a89.582,89.582,0,0,0,18.5-6.941,1.006,1.006,0,0,0-.555-1.7Z" transform="translate(282.049 345.564)" fill="#263238"/>
    <path id="Caminho_644" data-name="Caminho 644" d="M332.261,292.91c-5.657,0-11.661,3.471-16.867,5.553-5.865,2.395-11.8,4.789-17.7,7.115-11.869,4.651-23.7,9.336-35.712,13.57-.59.208-.312,1.18.312.937,12.216-4.234,24.468-8.329,36.649-12.7l17.908-6.525c5.032-1.874,11.592-3.644,15.687-7.358a.382.382,0,0,0-.278-.59Z" transform="translate(296.738 386.748)" fill="#263238"/>
    <path id="Caminho_645" data-name="Caminho 645" d="M404.279,408.234l58.132,191.681S196.738,683.208,152.453,651.14s49.664-253.075,220.9-414.77c60.041-56.744,50.046,8.989,29.778,74.583-23.461,75.971-32.1,117.1-32.1,117.1Z" transform="translate(0 193.718)" fill="#ffc727"/>
    <path id="Caminho_646" data-name="Caminho 646" d="M371.6,270.564c-6.074,2.638-79.615,45.534-84.752,48.9a28.458,28.458,0,0,0-7.67,2.013c-2.95,1.006-5.9,1.978-8.815,3.054-5.622,2.117-11.245,4.2-16.8,6.421a242.694,242.694,0,0,1-33.873,12.355c-.625,0-.312,1.076.312.937a312.938,312.938,0,0,0,35.331-9.509c5.831-1.839,11.626-3.818,17.353-5.831l-6.108,4.026c-23.878,15.826-47.373,32.276-71.112,48.311-13.5,9.128-26.932,18.394-40.571,27.314a.491.491,0,1,0,.521.833c47.929-31.235,211.706-131.327,217.363-136.672C373.645,271.779,372.708,270.113,371.6,270.564Z" transform="translate(32.403 331.353)" fill="#263238"/>
    <path id="Caminho_647" data-name="Caminho 647" d="M248.173,278.976c-4.338,5.518-9.475,10.412-13.882,15.722-.243.312-.486.59-.694.9,6.178-16.659,11.9-33.457,17.6-50.254a.278.278,0,0,0-.486-.208c-9.093,20.581-18.29,41.126-26.376,62.124-4.1,10.412-18.5,48.068-17.665,49.456.486.8,1.284,1.145,1.909.347,0-.208,12.217-28.563,13.015-30.541q3.818-9.544,7.5-19.088l.312-.59c.9-1.249,1.944-2.36,2.881-3.471,1.944-2.5,3.783-5.032,5.692-7.566,3.887-5.171,6.941-10.9,10.863-16.034C249.249,279.184,248.555,278.49,248.173,278.976Z" transform="translate(160.791 268.488)" fill="#263238"/>
    <path id="Caminho_648" data-name="Caminho 648" d="M378.839,335.722a21.688,21.688,0,0,0-.9-3.019c-.382-1.145-.8-2.291-1.215-3.471a23.27,23.27,0,0,1-1.076-3.471c-.243-1.18-.521-2.395-.764-3.471,0-.625-1.111-.347-.937.278.278,1.145.59,2.256.9,3.471a24.763,24.763,0,0,1,.59,3.471,20.349,20.349,0,0,0,.486,3.471,3.664,3.664,0,0,0,.243,1.6,8.533,8.533,0,0,1,.312,1.527c-12.563,2.742-24.988,6.941-37.448,10.1s-25.891,6.941-38.871,10.169c-26.2,6.664-52.406,13.431-78.713,19.678-15.028,3.471-29.986,7.358-45.118,10.412-.625,0-.347,1.076.278.937,26.585-5.31,53.308-9.752,79.823-15.826s52.614-12.7,78.539-20.442c14.681-4.408,30.021-8.191,44.215-13.882a.783.783,0,1,0-.347-1.527Z" transform="translate(85.064 458.466)" fill="#263238"/>
    <path id="Caminho_649" data-name="Caminho 649" d="M255.722,426.141c-1.353-5.345-2.811-10.62-4.3-15.93-2.95-10.724-5.969-21.414-9.024-32.138-6.073-21.275-12.7-42.341-19.609-63.338-3.922-11.939-7.427-24.086-11.835-35.816a.489.489,0,1,0-.937.278c2.429,10.863,5.657,21.552,8.538,32.276s5.657,21.518,8.746,32.242c6.074,21.24,12.563,42.376,19.262,63.442,1.874,5.9,3.471,11.939,5.692,17.769,1.076,2.985,1.944,6.039,3.089,9.024s2.5,5.865,3.471,8.885a.278.278,0,0,0,.521,0C258.082,437.178,257.11,431.625,255.722,426.141Z" transform="translate(169.102 351.318)" fill="#263238"/>
  </g>
</svg>
